<?xml version="1.0" encoding="UTF-8"?>
<!-- Generator: visioncortex VTracer 0.6.3 -->
<svg version="1.1" xmlns="http://www.w3.org/2000/svg" width="1280" height="1213">
<path d="M0 0 C4.16 0.76 8.35 1.1 12.56 1.47 C17.89 1.95 23 2.71 28.21 3.94 C30.65 4.49 33.09 4.88 35.56 5.28 C43.4 6.65 50.96 9.13 58.56 11.47 C58.56 12.13 58.56 12.79 58.56 13.47 C59.15 13.52 59.74 13.56 60.35 13.61 C64.75 14.03 68.53 14.52 72.56 16.47 C72.56 17.13 72.56 17.79 72.56 18.47 C73.55 18.14 74.54 17.81 75.56 17.47 C78.24 18.4 78.24 18.4 80.56 19.47 C80.56 20.13 80.56 20.79 80.56 21.47 C81.07 21.59 81.59 21.71 82.12 21.84 C86.82 23.05 91.23 24.25 95.56 26.47 C97.14 27.18 98.72 27.89 100.31 28.59 C101.11 28.94 101.91 29.3 102.73 29.66 C103.33 29.93 103.94 30.19 104.56 30.47 C104.56 31.13 104.56 31.79 104.56 32.47 C105.67 32.65 105.67 32.65 106.81 32.84 C109.36 33.42 111.28 34.2 113.56 35.47 C113.56 36.13 113.56 36.79 113.56 37.47 C114.09 37.57 114.63 37.67 115.18 37.78 C121.38 39.57 128.5 43.4 133.1 48.02 C134.67 49.71 134.67 49.71 137.62 51.15 C142.73 53.98 147.06 57.77 151.56 61.47 C153.33 62.89 155.1 64.3 156.87 65.72 C158.43 66.97 159.99 68.22 161.56 69.47 C162.94 70.51 162.94 70.51 164.35 71.58 C165.08 72.2 165.81 72.82 166.56 73.47 C166.56 74.13 166.56 74.79 166.56 75.47 C167.11 75.7 167.67 75.93 168.25 76.17 C171.16 77.8 173.18 79.83 175.55 82.19 C176.02 82.66 176.49 83.13 176.97 83.61 C177.96 84.59 178.94 85.58 179.93 86.58 C181.41 88.07 182.91 89.56 184.41 91.04 C189.11 95.74 193.58 100.43 197.4 105.88 C198.66 107.7 198.66 107.7 200.99 109.84 C204.09 113.01 206.44 116.47 208.93 120.12 C210.57 122.55 210.57 122.55 212.62 125.03 C224.32 139.75 224.32 139.75 225.56 147.47 C226.22 147.47 226.88 147.47 227.56 147.47 C236.24 164.84 236.24 164.84 237.46 167.28 C238.39 169.13 239.34 170.95 240.31 172.78 C241.52 175.38 242.01 177.67 242.56 180.47 C243.22 181.13 243.88 181.79 244.56 182.47 C249.3 192.5 253.39 203.55 255.56 214.47 C255.23 215.13 254.9 215.79 254.56 216.47 C255.22 216.47 255.88 216.47 256.56 216.47 C256.82 217.67 257.09 218.88 257.36 220.12 C257.72 221.74 258.08 223.35 258.43 224.97 C258.61 225.76 258.78 226.55 258.96 227.36 C259.79 231.11 260.65 234.83 261.62 238.54 C262.65 242.59 263.17 246.63 263.62 250.78 C264.2 256.2 264.2 256.2 265.56 261.47 C265.78 264.13 265.96 266.77 266.09 269.44 C266.14 270.24 266.18 271.03 266.22 271.85 C266.31 273.55 266.4 275.24 266.49 276.94 C266.62 279.47 266.76 281.99 266.9 284.52 C267.34 292.88 267.65 301.22 267.68 309.59 C267.68 310.35 267.69 311.12 267.69 311.9 C267.68 317.22 267.68 317.22 266.56 319.47 C266.33 322.18 266.14 324.87 265.99 327.59 C265.95 328.35 265.91 329.1 265.86 329.88 C265.76 331.74 265.66 333.6 265.56 335.47 C264.9 335.47 264.24 335.47 263.56 335.47 C263.75 336.12 263.94 336.77 264.14 337.43 C264.69 341.43 264.02 345.04 263.31 348.97 C263.17 349.76 263.03 350.55 262.89 351.37 C261.68 358.13 260.22 364.8 258.56 371.47 C258.41 372.08 258.27 372.7 258.12 373.34 C256.67 378.81 254.86 384.19 253.15 389.59 C252.68 391.09 252.21 392.59 251.74 394.09 C249.74 400.34 247.45 406.58 244.56 412.47 C243.57 412.96 243.57 412.96 242.56 413.47 C242.41 414.35 242.27 415.24 242.12 416.15 C241.5 419.8 240.31 422.22 238.56 425.47 C237.93 426.71 237.3 427.96 236.68 429.22 C233.64 435.3 230.6 441.38 227.56 447.47 C226.9 447.47 226.24 447.47 225.56 447.47 C225.45 448.02 225.35 448.58 225.24 449.15 C223.69 454.38 220 458.81 216.96 463.28 C215.67 465.29 214.58 467.31 213.56 469.47 C212.9 469.47 212.24 469.47 211.56 469.47 C211.32 470.18 211.07 470.89 210.82 471.63 C209.38 474.86 207.59 477.14 205.31 479.84 C204.49 480.81 203.68 481.78 202.84 482.78 C202.09 483.67 201.33 484.55 200.56 485.47 C200.06 486.06 199.56 486.66 199.05 487.28 C187.8 500.71 175.43 514.88 161.23 525.23 C159.42 526.5 159.42 526.5 157.56 528.47 C146.47 538.47 146.47 538.47 142.56 538.47 C142.23 539.46 141.9 540.45 141.56 541.47 C139.92 542.47 138.28 543.46 136.59 544.36 C132.15 546.77 127.9 549.54 123.74 552.4 C120.13 554.74 116.41 556.79 112.62 558.82 C110.51 559.96 108.4 561.11 106.31 562.27 C89.6 571.47 89.6 571.47 83.56 571.47 C83.56 572.13 83.56 572.79 83.56 573.47 C82.72 573.71 81.89 573.95 81.03 574.2 C73.55 576.4 73.55 576.4 66.37 579.4 C41.59 590.93 9.62 594.48 -17.32 595.15 C-18.02 595.17 -18.73 595.19 -19.46 595.21 C-57.83 596.23 -95.3 591.95 -131.38 578.24 C-132.7 577.75 -134.02 577.26 -135.34 576.78 C-140.2 575.03 -144.85 572.94 -149.53 570.77 C-152.41 569.48 -155.32 568.31 -158.26 567.15 C-167.56 563.32 -176.14 558.01 -184.6 552.6 C-186.61 551.36 -188.67 550.26 -190.76 549.15 C-198.92 544.67 -206.16 538.73 -213.45 532.98 C-215.58 531.32 -215.58 531.32 -218.57 529.47 C-221.59 527.36 -223.96 525.04 -226.51 522.4 C-228.31 520.6 -230.16 518.95 -232.1 517.3 C-236.79 513.22 -241.18 508.87 -245.57 504.47 C-246.34 503.7 -247.11 502.93 -247.91 502.14 C-260.44 489.58 -260.44 489.58 -260.44 486.47 C-261.1 486.47 -261.76 486.47 -262.44 486.47 C-263.84 484.72 -265.16 482.92 -266.44 481.09 C-269.22 477.09 -269.22 477.09 -272.44 473.47 C-272.44 472.48 -272.44 471.49 -272.44 470.47 C-273.43 470.14 -274.42 469.81 -275.44 469.47 C-277.05 467.51 -277.05 467.51 -278.63 465.09 C-279.16 464.3 -279.69 463.51 -280.24 462.69 C-281.44 460.47 -281.44 460.47 -281.44 457.47 C-282.1 457.47 -282.76 457.47 -283.44 457.47 C-287.44 450.72 -287.44 450.72 -287.44 448.47 C-288.1 448.47 -288.76 448.47 -289.44 448.47 C-295.3 436.75 -295.3 436.75 -296.37 434.61 C-297.08 433.18 -297.8 431.76 -298.51 430.34 C-302.57 422.27 -306.26 414.09 -309.53 405.67 C-310.47 403.28 -310.47 403.28 -312.13 400.4 C-313.88 396.48 -314.17 392.72 -314.44 388.47 C-315.1 388.47 -315.76 388.47 -316.44 388.47 C-317.44 381.84 -317.44 381.84 -317.44 378.47 C-318.1 378.47 -318.76 378.47 -319.44 378.47 C-319.95 376.91 -320.45 375.34 -320.94 373.78 C-321.22 372.91 -321.5 372.04 -321.79 371.14 C-322.45 368.46 -322.45 366.22 -322.44 363.47 C-323.03 361.14 -323.03 361.14 -323.88 358.9 C-325.51 354.37 -326.58 350.57 -326.51 345.72 C-326.5 344.92 -326.49 344.12 -326.48 343.29 C-326.47 342.69 -326.45 342.09 -326.44 341.47 C-326.77 341.47 -327.1 341.47 -327.44 341.47 C-327.42 340.5 -327.4 339.53 -327.38 338.53 C-327.09 335.59 -327.09 335.59 -328.44 334.47 C-329.26 329.86 -329.55 325.44 -329.51 320.76 C-329.5 319.54 -329.49 318.31 -329.48 317.04 C-329.46 315.15 -329.46 315.15 -329.44 313.22 C-329.42 310.69 -329.4 308.16 -329.38 305.64 C-329.37 304.53 -329.36 303.41 -329.34 302.27 C-329.31 299.38 -329.31 299.38 -330.44 296.47 C-331.02 285.54 -330.47 274.81 -329.07 263.97 C-328.94 262.98 -328.82 262 -328.69 260.98 C-327.7 253.98 -327.7 253.98 -326.39 251.42 C-325.06 248.67 -325.46 246.11 -325.53 243.12 C-325.36 237.95 -324.07 232.94 -322.94 227.9 C-322.7 226.8 -322.47 225.7 -322.22 224.56 C-321.64 221.86 -321.04 219.16 -320.44 216.47 C-319.78 216.47 -319.12 216.47 -318.44 216.47 C-318.28 215.34 -318.28 215.34 -318.11 214.2 C-317.95 213.22 -317.79 212.23 -317.63 211.22 C-317.48 210.24 -317.33 209.27 -317.17 208.26 C-316.44 205.47 -316.44 205.47 -314.91 203.43 C-313.07 200.97 -312.96 199.26 -312.76 196.22 C-312.69 195.32 -312.62 194.43 -312.56 193.51 C-312.52 192.84 -312.48 192.16 -312.44 191.47 C-311.45 191.14 -310.46 190.81 -309.44 190.47 C-309.3 189.37 -309.15 188.28 -309.01 187.15 C-308.07 181.01 -308.07 181.01 -306.01 179.22 C-303.7 176.64 -303.25 173.77 -302.44 170.47 C-301.78 170.47 -301.12 170.47 -300.44 170.47 C-299.45 165.02 -299.45 165.02 -298.44 159.47 C-297.45 159.47 -296.46 159.47 -295.44 159.47 C-295.11 157.82 -294.78 156.17 -294.44 154.47 C-293.45 154.14 -292.46 153.81 -291.44 153.47 C-291.5 152.72 -291.57 151.98 -291.63 151.22 C-291.41 147.94 -290.52 146.94 -288.44 144.47 C-288.15 143.83 -287.87 143.19 -287.57 142.53 C-286.01 139.67 -283.74 137.76 -281.44 135.47 C-280.01 133.51 -278.73 131.52 -277.44 129.47 C-277.77 128.81 -278.1 128.15 -278.44 127.47 C-277.78 127.14 -277.12 126.81 -276.44 126.47 C-275.79 124.44 -275.79 124.44 -275.44 122.47 C-274.45 122.96 -274.45 122.96 -273.44 123.47 C-272.2 122.42 -272.2 122.42 -272.07 120.09 C-271.35 117.08 -270.62 116.56 -268.44 114.47 C-267.75 113.31 -267.09 112.15 -266.44 110.97 C-263.8 106.21 -263.8 106.21 -261.44 104.47 C-260.45 104.47 -259.46 104.47 -258.44 104.47 C-258.44 103.15 -258.44 101.83 -258.44 100.47 C-257.76 100.28 -257.08 100.09 -256.38 99.9 C-252.29 97.9 -249.34 94.96 -246.44 91.47 C-245.95 89.98 -245.95 89.98 -245.44 88.47 C-244.58 88.06 -244.58 88.06 -243.69 87.65 C-239.94 85.67 -237.26 82.29 -235.54 78.43 C-234.2 76.04 -232.93 75.25 -230.57 73.9 C-229.5 73.27 -229.5 73.27 -228.42 72.63 C-227.77 72.24 -227.11 71.86 -226.44 71.47 C-224.02 69.99 -224.02 69.99 -222.44 68.47 C-222.44 67.48 -222.44 66.49 -222.44 65.47 C-221.68 65.36 -220.92 65.26 -220.13 65.15 C-217.26 64.42 -216.21 63.79 -214.44 61.47 C-214.44 60.81 -214.44 60.15 -214.44 59.47 C-213.45 59.14 -212.46 58.81 -211.44 58.47 C-210.95 57.48 -210.95 57.48 -210.44 56.47 C-209.33 56.28 -209.33 56.28 -208.19 56.09 C-204.74 55.31 -202.99 53.88 -200.44 51.47 C-200.11 50.48 -199.78 49.49 -199.44 48.47 C-196.47 47.97 -196.47 47.97 -193.44 47.47 C-193.44 46.81 -193.44 46.15 -193.44 45.47 C-189.06 42.47 -189.06 42.47 -186.44 42.47 C-185.78 41.48 -185.12 40.49 -184.44 39.47 C-181.82 38.78 -181.82 38.78 -179.44 38.47 C-179.11 37.48 -178.78 36.49 -178.44 35.47 C-174.18 32.83 -169.52 30.81 -164.44 31.47 C-164.44 30.81 -164.44 30.15 -164.44 29.47 C-161.7 27.45 -159.7 26.51 -156.32 25.97 C-153.08 25.4 -152.61 24.73 -150.44 22.47 C-148.78 22.09 -147.12 21.76 -145.44 21.47 C-144.45 20.81 -143.46 20.15 -142.44 19.47 C-139.38 18.28 -139.38 18.28 -136.44 17.47 C-135.78 17.8 -135.12 18.13 -134.44 18.47 C-134.44 17.81 -134.44 17.15 -134.44 16.47 C-131.31 14.61 -129.07 14.26 -125.44 14.47 C-125.44 13.81 -125.44 13.15 -125.44 12.47 C-123.19 11.82 -120.94 11.17 -118.69 10.53 C-117.44 10.17 -116.19 9.81 -114.9 9.44 C-112.42 8.74 -109.95 8.07 -107.44 7.47 C-106.51 7.23 -105.57 6.99 -104.6 6.75 C-103.58 6.49 -102.56 6.23 -101.51 5.97 C-100.49 5.71 -99.47 5.45 -98.42 5.18 C-95.76 4.54 -93.12 3.99 -90.44 3.47 C-89.79 3.33 -89.15 3.19 -88.48 3.05 C-60.45 -2.87 -28.26 -5.59 0 0 Z M-67.44 0.47 C-67.44 0.8 -67.44 1.13 -67.44 1.47 C-65.79 1.47 -64.14 1.47 -62.44 1.47 C-62.44 1.14 -62.44 0.81 -62.44 0.47 C-64.09 0.47 -65.74 0.47 -67.44 0.47 Z M-74.44 1.47 C-74.44 1.8 -74.44 2.13 -74.44 2.47 C-72.46 2.47 -70.48 2.47 -68.44 2.47 C-68.44 2.14 -68.44 1.81 -68.44 1.47 C-70.42 1.47 -72.4 1.47 -74.44 1.47 Z M-257.44 101.47 C-257.11 102.13 -256.78 102.79 -256.44 103.47 C-256.11 102.81 -255.78 102.15 -255.44 101.47 C-256.1 101.47 -256.76 101.47 -257.44 101.47 Z M-263.44 108.47 C-262.44 110.47 -262.44 110.47 -262.44 110.47 Z M-266.44 112.47 C-265.44 114.47 -265.44 114.47 -265.44 114.47 Z M-297.44 160.47 C-296.44 162.47 -296.44 162.47 -296.44 162.47 Z M-316.44 208.47 C-315.44 210.47 -315.44 210.47 -315.44 210.47 Z M-320.44 222.47 C-319.44 224.47 -319.44 224.47 -319.44 224.47 Z M-321.44 225.47 C-320.44 228.47 -320.44 228.47 -320.44 228.47 Z M-329.44 276.47 C-329.44 282.41 -329.44 288.35 -329.44 294.47 C-329.11 294.47 -328.78 294.47 -328.44 294.47 C-328.44 288.53 -328.44 282.59 -328.44 276.47 C-328.77 276.47 -329.1 276.47 -329.44 276.47 Z M-325.44 345.47 C-325.44 347.12 -325.44 348.77 -325.44 350.47 C-325.11 350.47 -324.78 350.47 -324.44 350.47 C-324.44 348.82 -324.44 347.17 -324.44 345.47 C-324.77 345.47 -325.1 345.47 -325.44 345.47 Z M-321.44 366.47 C-320.44 368.47 -320.44 368.47 -320.44 368.47 Z M-320.44 369.47 C-319.44 372.47 -319.44 372.47 -319.44 372.47 Z " fill="#F6DCEF" transform="translate(668.442626953125,328.533935546875)"/>
<path d="M0 0 C2.04 0.01 4.07 -0.02 6.11 -0.05 C18.32 -0.12 29.69 1.89 40.17 8.45 C41.33 8.78 42.48 9.11 43.67 9.45 C46.92 10.38 49.41 11.66 52.31 13.36 C54.04 14.37 55.8 15.34 57.57 16.31 C65.78 20.85 73.32 25.72 80.09 32.32 C83.11 35.21 84.39 36.38 88.67 36.76 C92.09 35.48 92.78 35 95.05 32.45 C99.19 27.88 104.27 25.54 109.69 22.8 C114.02 20.6 118.12 18.28 122.17 15.57 C126.73 12.6 130.92 10.82 136.17 9.45 C137.33 9.14 138.49 8.84 139.68 8.52 C142.16 7.87 144.64 7.23 147.13 6.61 C150.33 5.77 153.29 4.58 156.35 3.34 C162.59 1.04 168.28 0.95 174.86 1.13 C175.99 1.15 177.13 1.17 178.3 1.18 C181.59 1.24 184.88 1.34 188.17 1.45 C189.49 1.49 189.49 1.49 190.84 1.53 C203.51 1.98 203.51 1.98 209.17 4.45 C210.37 4.69 211.56 4.94 212.8 5.2 C216.48 6.04 219.21 7.6 222.42 9.57 C226.6 11.99 228.96 12.67 233.73 12.13 C244.59 11.44 255.14 20.96 263.17 27.45 C264.81 28.34 264.81 28.34 266.48 29.26 C270.91 31.71 274.48 35.01 278.17 38.45 C279.04 39.23 279.9 40.01 280.8 40.82 C285.5 46.02 289.41 51.59 291.17 58.45 C291.83 58.45 292.49 58.45 293.17 58.45 C295.86 63.1 298.52 67.77 301.17 72.45 C301.64 73.28 302.11 74.1 302.6 74.96 C304.09 77.6 305.57 80.24 307.05 82.88 C307.76 84.14 307.76 84.14 308.49 85.43 C320.26 106.62 316.69 136.02 311.98 159.01 C311.84 159.73 311.69 160.46 311.54 161.2 C308.96 173.76 304.86 185.49 300 197.36 C299.09 199.56 299.09 199.56 298.3 202.38 C295.47 210.08 291.16 216.68 286.02 223.01 C283.89 225.82 282.11 228.74 280.3 231.76 C272.61 244.49 263.3 255.54 252.7 265.88 C250.03 268.5 247.51 271.18 245.08 274.02 C240.39 279.44 235.35 284.52 230.3 289.61 C229.18 290.74 228.06 291.88 226.95 293.02 C219.88 300.28 212.67 306.63 204.27 312.32 C197.8 316.75 191.88 321.76 186.11 327.07 C182.4 330.46 178.62 333.23 174.39 335.92 C171.96 337.59 169.85 339.45 167.67 341.45 C164.08 344.73 160.38 347.4 156.28 350.01 C154.26 351.39 152.53 352.85 150.73 354.51 C147.45 357.41 143.98 359.17 140.04 361.05 C130.78 365.57 122.47 370.59 114.67 377.37 C110.03 381.23 104.92 384.29 99.67 387.26 C98.59 387.88 97.51 388.51 96.39 389.15 C92.67 390.65 90.98 390.56 87.17 389.45 C84.9 388.43 84.9 388.43 82.8 387.2 C82.02 386.74 81.24 386.28 80.44 385.81 C79.69 385.36 78.94 384.91 78.17 384.45 C77.57 384.1 76.96 383.75 76.34 383.39 C71.04 380.23 66.18 376.5 61.24 372.82 C55.91 368.89 50.39 365.39 44.75 361.94 C40.33 359.23 36.26 356.3 32.24 353.02 C29.2 350.71 25.92 348.88 22.62 346.97 C20.25 345.49 18.15 343.9 15.98 342.13 C11.43 338.47 6.54 335.56 1.49 332.64 C-4.36 329.24 -9.1 325.3 -13.83 320.45 C-24.16 309.68 -24.16 309.68 -35.83 300.45 C-39.04 298.15 -41.26 295.95 -43.52 292.76 C-45.77 289.65 -48.12 287.16 -51.02 284.63 C-56.42 279.91 -61.54 274.93 -66.64 269.88 C-67.47 269.08 -68.29 268.28 -69.14 267.45 C-73.29 263.32 -76.79 259.37 -79.73 254.3 C-81.49 251.32 -83.63 248.66 -85.77 245.95 C-86.65 244.81 -87.53 243.68 -88.41 242.55 C-89.21 241.52 -90.01 240.5 -90.83 239.45 C-92.35 237.45 -93.86 235.45 -95.35 233.43 C-96.43 231.99 -97.52 230.55 -98.62 229.11 C-106.73 218.33 -113.82 206.79 -118.69 194.19 C-119.86 191.37 -121.24 188.83 -122.77 186.2 C-125.28 181.71 -127.26 177.18 -129.08 172.38 C-129.32 171.75 -129.57 171.11 -129.82 170.45 C-133.66 160.06 -134.15 149.95 -134.09 138.97 C-134.08 136.58 -134.09 134.2 -134.1 131.81 C-134.11 124.08 -133.8 116.73 -132.32 109.11 C-131.69 105.7 -131.42 102.3 -131.15 98.84 C-129.78 81.36 -122.99 69.49 -112.83 55.45 C-112.32 54.74 -111.82 54.04 -111.3 53.32 C-108.26 49.18 -105.02 45.27 -101.6 41.44 C-100.45 40.14 -99.31 38.84 -98.18 37.52 C-87.39 24.9 -77.01 16.39 -61.25 10.71 C-58.81 9.81 -56.44 8.87 -54.06 7.84 C-37.85 0.88 -37.85 0.88 -29.54 3.04 C-26.27 3.53 -24.18 2.94 -21.01 2.04 C-13.99 0.3 -7.2 -0.05 0 0 Z " fill="#F5494A" transform="translate(549.82861328125,455.553955078125)"/>
<path d="M0 0 C1 0.12 2 0.23 3.03 0.36 C9.93 1.3 16.41 2.76 23 5 C24.32 5.41 24.32 5.41 25.68 5.84 C39.51 10.41 49.55 18.53 57 31 C57.5 31.74 57.99 32.49 58.5 33.25 C65.64 44.24 67.34 56.13 66 69 C63.91 77.23 60.1 84.26 55 91 C54.26 92.03 53.51 93.06 52.75 94.12 C45.72 101.48 37.41 105.45 28 109 C27.22 109.35 26.44 109.7 25.63 110.07 C22.21 111.28 18.78 111.71 15.19 112.12 C14.51 112.21 13.84 112.3 13.15 112.39 C9.62 112.81 6.23 113.02 2.68 112.93 C-1.09 112.67 -1.09 112.67 -4 115 C-20.88 114.18 -33.85 103.84 -44.84 91.97 C-49.67 85.33 -51.75 78.11 -53.25 70.12 C-53.42 69.24 -53.58 68.36 -53.76 67.45 C-56.82 50.51 -53.34 34.54 -44 20 C-41.5 17.79 -41.5 17.79 -39 16 C-38.39 15.51 -37.78 15.02 -37.15 14.51 C-26.95 6.55 -13.41 -1.61 0 0 Z " fill="#FBFCFE" transform="translate(560,505)"/>
<path d="M0 0 C2.26 -0.01 4.51 -0.04 6.77 -0.07 C14.39 -0.13 20.99 0.23 28.09 3.24 C30.22 3.83 32.34 4.41 34.47 4.99 C48.6 9.33 57.7 18.27 65.22 30.62 C65.72 31.41 66.22 32.21 66.73 33.04 C76.73 49.17 81.55 62.52 81.66 81.68 C81.67 82.96 81.69 84.24 81.7 85.56 C81.58 96.86 78.76 104.84 71.91 113.74 C71.42 114.38 70.94 115.01 70.45 115.67 C56.3 134.19 56.3 134.19 49.09 136.24 C45.09 135.02 42.7 133.22 39.77 130.28 C38.97 129.48 38.17 128.69 37.35 127.87 C36.53 127.02 35.7 126.17 34.84 125.3 C33.99 124.44 33.14 123.57 32.26 122.68 C26.48 116.79 21.07 110.83 16.09 104.24 C14.87 102.65 13.65 101.06 12.43 99.47 C11.58 98.36 10.74 97.25 9.89 96.14 C7.07 92.43 4.09 88.89 1.03 85.37 C-3.65 79.82 -7.33 73.93 -10.93 67.64 C-12.46 65.01 -14.05 62.54 -15.78 60.05 C-18.32 56.08 -19.03 51.86 -20.03 47.3 C-20.94 44.14 -22.17 41.75 -23.84 38.93 C-28.83 30.34 -32.38 19.2 -30.91 9.24 C-23 0.1 -11.09 0.03 0 0 Z " fill="#FBACD5" transform="translate(455.906494140625,594.759765625)"/>
<path d="M0 0 C1.52 0.13 3.04 0.23 4.56 0.31 C10.04 0.82 14.14 2.52 19 5 C19.69 5.34 20.37 5.67 21.08 6.02 C27.38 9.27 32.2 13.43 37.19 18.44 C37.98 19.23 38.77 20.02 39.58 20.83 C49.99 31.67 53.33 42.72 53.14 57.69 C52.63 69.52 48.02 78.37 40 87 C37.55 89.15 35.17 90.9 32.38 92.56 C30.03 93.82 30.03 93.82 28.73 95.43 C26.35 97.59 23.88 98.43 20.88 99.56 C19.8 99.98 18.72 100.39 17.62 100.82 C10.27 103.22 3.42 104.37 -4.31 104.31 C-5.14 104.31 -5.97 104.3 -6.82 104.3 C-20.93 104.03 -35.07 99.12 -46 90 C-56.15 79.16 -61.44 67.93 -61.18 53.05 C-60.74 41.87 -59.68 33.16 -53 24 C-52.45 23.11 -51.89 22.22 -51.32 21.3 C-44.85 11.35 -34.55 3.19 -23.14 -0.46 C-16.62 -1.58 -6.01 -3.01 0 0 Z " fill="#FBFCFE" transform="translate(718,513)"/>
<path d="M0 0 C0.77 0.29 1.55 0.57 2.35 0.87 C4.24 1.57 6.12 2.28 8 3 C8 3.66 8 4.32 8 5 C8.99 5.33 9.98 5.66 11 6 C10.67 6.33 10.34 6.66 10 7 C9.68 9.17 9.37 11.33 9.06 13.5 C6.57 28.59 -0.58 42.88 -6.95 56.67 C-7.83 58.63 -8.64 60.62 -9.44 62.62 C-12.87 70.04 -17.93 76.29 -23.06 82.59 C-24.77 84.72 -26.43 86.87 -28.06 89.06 C-28.51 89.67 -28.97 90.27 -29.43 90.9 C-30.45 92.26 -31.47 93.64 -32.48 95.01 C-37.06 101.11 -42.22 106.39 -47.69 111.69 C-55.03 118.78 -55.03 118.78 -61 127 C-62.94 128.94 -62.94 128.94 -65 130 C-73.19 129.15 -80.57 122.24 -86.06 116.46 C-92.19 108.67 -96.1 99.37 -99.5 90.12 C-99.76 89.45 -100.01 88.77 -100.27 88.07 C-106.15 71.13 -98.11 51.2 -91.56 35.56 C-84.84 22.11 -73.39 15.16 -60.55 8.36 C-58.77 7.41 -57 6.43 -55.24 5.42 C-47.39 1.12 -40.1 -0.38 -31.25 -1.38 C-29.99 -1.54 -28.73 -1.7 -27.43 -1.87 C-17.34 -3.13 -9.57 -3.68 0 0 Z " fill="#FBACD5" transform="translate(837,597)"/>
<path d="M0 0 C0.97 0.04 1.94 0.09 2.94 0.13 C10.01 0.58 14.67 1.45 19.62 6.88 C25.47 16.09 26.42 25.59 26.62 36.25 C26.66 37.27 26.7 38.29 26.73 39.33 C26.72 48.12 23.65 53.05 17.8 59.38 C17.17 59.91 16.53 60.45 15.88 61 C15.23 61.56 14.59 62.11 13.93 62.69 C8.28 66.53 0.32 65.49 -6.11 64.54 C-12.89 63.08 -18.03 60.9 -23 56 C-23.51 55.57 -24.01 55.13 -24.54 54.68 C-28.29 51.06 -29.43 48.28 -29.73 43.05 C-29.72 40.8 -29.69 38.56 -29.62 36.31 C-29.63 35.2 -29.64 34.1 -29.64 32.96 C-29.51 22.38 -27.46 12.31 -19.84 4.56 C-13.74 -0.6 -7.56 -0.42 0 0 Z " fill="#000000" transform="translate(640,688)"/>
<path d="M0 0 C0 0.66 0 1.32 0 2 C0.99 1.67 1.98 1.34 3 1 C5.26 2.14 5.26 2.14 7.69 3.81 C8.9 4.63 8.9 4.63 10.14 5.46 C10.75 5.97 11.37 6.48 12 7 C12 7.66 12 8.32 12 9 C12.66 9 13.32 9 14 9 C14.65 10.23 15.3 11.46 15.94 12.69 C16.48 13.71 16.48 13.71 17.03 14.76 C21.67 25.44 19.25 37.74 15.48 48.29 C11.63 57.93 6.87 64.73 -2.25 69.81 C-11.32 72.68 -20.17 72.82 -29 69 C-36.29 64.06 -41.45 58.33 -43.55 49.73 C-45.52 37.32 -40.26 25.43 -34 15 C-25.3 3.07 -14.22 -0.64 0 0 Z M-15 20 C-22.11 25.98 -25.57 33.94 -27 43 C-26.41 47.59 -25.07 51.39 -21.31 54.31 C-17.77 55.36 -14.6 55.75 -11 55 C-4.06 51.19 -1.46 44.8 1.25 37.75 C2.4 32 3.21 25.35 1.18 19.73 C-0.01 17.67 -0.01 17.67 -3.12 16.5 C-8.23 15.84 -10.84 17.16 -15 20 Z M-43 42 C-42 45 -42 45 -42 45 Z " fill="#FBACD5" transform="translate(545,982)"/>
<path d="M0 0 C0 0.66 0 1.32 0 2 C1.13 2.15 1.13 2.15 2.28 2.29 C7.04 3.53 9.4 6.99 12 11 C13.64 14.93 14.9 18.89 16 23 C17.21 22.63 18.42 22.25 19.66 21.87 C29.64 18.94 38.6 16.63 49 19 C51.5 21.5 51.32 22.48 51.38 25.94 C51.4 26.81 51.43 27.69 51.46 28.59 C51 31 51 31 49.54 32.7 C45.84 34.59 42.07 35.15 38 35.88 C30.13 37.38 23.23 39.48 16 43 C16 43.66 16 44.32 16 45 C17.43 46.24 17.43 46.24 19.32 47.43 C20.37 48.13 20.37 48.13 21.44 48.84 C22.18 49.33 22.92 49.81 23.69 50.31 C36.22 58.55 36.22 58.55 37.66 63.1 C37.59 66.8 37.25 68.69 34.88 71.56 C31.12 73.44 30.04 73.17 26 72 C22.46 70.02 19.15 67.74 15.81 65.44 C14.87 64.8 13.93 64.16 12.97 63.5 C10.3 61.68 7.65 59.84 5 58 C3.87 57.23 2.73 56.45 1.6 55.68 C-7.12 49.57 -16.7 42.35 -22 33 C-22 31.68 -22 30.36 -22 29 C-22.66 29 -23.32 29 -24 29 C-26 21.87 -25.65 15.55 -22 9 C-15.51 1.25 -9.74 -0.71 0 0 Z M-6 16 C-6.66 16.66 -7.32 17.32 -8 18 C-7.74 23.24 -7.12 26.66 -4 31 C-3.34 30.67 -2.68 30.34 -2 30 C-1.97 28.58 -1.95 27.17 -1.94 25.75 C-1.93 24.96 -1.91 24.17 -1.9 23.36 C-2 21.04 -2.16 19.17 -3 17 C-3.99 16.67 -4.98 16.34 -6 16 Z M-1 25 C-1.33 27.64 -1.66 30.28 -2 33 C-1.34 33 -0.68 33 0 33 C0 30.36 0 27.72 0 25 C-0.33 25 -0.66 25 -1 25 Z " fill="#FBACD5" transform="translate(284,394)"/>
<path d="M0 0 C5.95 4.94 9.99 9.4 10.85 17.25 C11.23 29.94 6.84 40.49 -1.25 50.31 C-7.98 57.26 -14.67 62.02 -24.64 62.47 C-26.09 62.48 -27.54 62.49 -28.99 62.48 C-29.71 62.5 -30.43 62.51 -31.17 62.53 C-38.42 62.54 -44.21 60.31 -49.49 55.17 C-55.17 47.38 -56.44 40.79 -55.49 31.17 C-53.23 21.98 -49.37 14.51 -43.49 7.17 C-43.02 6.52 -42.54 5.88 -42.06 5.21 C-30.98 -9.15 -14.04 -10.34 0 0 Z M-28.49 15.17 C-34.76 23.18 -39.53 31.8 -38.49 42.17 C-37.41 44.45 -37.41 44.45 -35.49 46.17 C-30.64 47.28 -25.58 47.18 -21.06 44.99 C-13.49 39.47 -8.51 32.44 -6.99 23.17 C-6.77 21.97 -6.56 20.78 -6.33 19.54 C-6.16 15.99 -6.16 15.99 -8.83 13.29 C-15.61 7.87 -22.41 9.63 -28.49 15.17 Z M-6.49 17.17 C-6.49 19.81 -6.49 22.45 -6.49 25.17 C-6.16 25.17 -5.83 25.17 -5.49 25.17 C-5.49 22.53 -5.49 19.89 -5.49 17.17 C-5.82 17.17 -6.15 17.17 -6.49 17.17 Z M-7.49 26.17 C-6.49 28.17 -6.49 28.17 -6.49 28.17 Z M-54.49 31.17 C-53.49 35.17 -53.49 35.17 -53.49 35.17 Z " fill="#FBACD5" transform="translate(838.48828125,229.83203125)"/>
<path d="M0 0 C5 3.81 7.58 8.51 9.01 14.53 C10.61 26.56 6.87 39.25 -0.01 49.09 C-5.68 56.08 -12.03 61.58 -20.99 63.53 C-29.09 64.36 -37.37 64.91 -43.99 59.53 C-49.74 54.09 -53.54 47.73 -54.23 39.75 C-54.55 25.81 -49.97 13.45 -41.74 2.22 C-28.79 -10.43 -14.39 -9.97 0 0 Z M-28.05 13.09 C-33.85 20.39 -38.21 30.56 -37.86 39.97 C-36.9 42.79 -36.05 44.38 -33.99 46.53 C-29.26 47.6 -24.17 47.63 -19.79 45.43 C-13.02 39.94 -9.56 31.94 -7.99 23.53 C-7.66 19.94 -7.69 16.92 -8.99 13.53 C-15.39 7.19 -21.05 7.79 -28.05 13.09 Z M-30.99 47.53 C-30.99 47.86 -30.99 48.19 -30.99 48.53 C-28.68 48.53 -26.37 48.53 -23.99 48.53 C-23.99 48.2 -23.99 47.87 -23.99 47.53 C-26.3 47.53 -28.61 47.53 -30.99 47.53 Z " fill="#FBACD5" transform="translate(772.98828125,204.46875)"/>
<path d="M0 0 C9.57 0.31 19.13 5.59 25.88 12.14 C31.52 18.4 32.54 23.8 32.36 32.16 C31.64 39.94 27.36 44.92 21.82 50.2 C10.15 59.43 -3.26 62.52 -17.94 61.38 C-24.99 60.19 -30.37 56.86 -34.94 51.38 C-37.29 47.52 -39.4 43.63 -40.94 39.38 C-40.61 38.72 -40.28 38.05 -39.94 37.38 C-40.6 37.38 -41.26 37.38 -41.94 37.38 C-42.71 28.37 -41.29 21.86 -35.61 14.7 C-26.35 5.66 -12.51 1.19 0 0 Z M-21.94 25.38 C-24.4 28.76 -25.19 31.33 -24.94 35.44 C-24.39 38.27 -23.69 39.8 -22.19 42.38 C-16.32 45.98 -9.75 45.03 -3.15 43.9 C2.9 42.34 7.42 39.5 12.06 35.38 C12.62 34.89 13.18 34.4 13.76 33.9 C15.39 32.28 15.39 32.28 15.44 29 C15.03 25.08 14.62 23.34 12.06 20.38 C0.89 13.89 -11.97 18.32 -21.94 25.38 Z M-40.94 26.38 C-39.94 28.38 -39.94 28.38 -39.94 28.38 Z " fill="#FBACD5" transform="translate(270.9375,761.625)"/>
<path d="M0 0 C6.1 2.85 11.4 6.2 16.81 10.19 C17.6 10.76 18.39 11.34 19.2 11.93 C25.31 16.42 31.25 21.05 37 26 C37.95 26.82 38.91 27.64 39.89 28.48 C45.12 33.07 45.12 33.07 47 35 C47 35.66 47 36.32 47 37 C47.66 37 48.32 37 49 37 C49.65 38.25 50.3 39.5 50.94 40.75 C51.3 41.45 51.66 42.14 52.03 42.86 C54.9 49.19 54.8 56.06 53 62.69 C49.92 67.78 45.72 72.09 40 74 C34.11 74.57 28.55 74.81 23.5 71.4 C19.05 67.24 16.59 61.8 15 56 C14.67 56 14.34 56 14 56 C14 54.35 14 52.7 14 51 C13.44 51.12 12.88 51.24 12.3 51.37 C-10.02 56.03 -10.02 56.03 -18 55 C-20.37 52.81 -21.54 50.9 -23 48.06 C-23 44.54 -21.18 42.64 -19 40 C-14.42 37.63 -9.27 36.95 -4.25 36 C-2.53 35.67 -0.8 35.33 0.92 35 C2.18 34.76 2.18 34.76 3.46 34.51 C7.32 33.74 11.16 32.87 15 32 C11.25 26.82 6.8 23.57 1.6 19.89 C-5.12 15.01 -5.12 15.01 -6.88 11 C-7.04 8.29 -6.96 6.57 -6 4 C-2.94 1.69 -2.94 1.69 0 0 Z M31 43 C29.39 48.71 30.91 52.69 33 58 C33.99 57.67 34.98 57.34 36 57 C36.31 50.24 36.31 50.24 34 44 C33.01 43.67 32.02 43.34 31 43 Z M37 53 C37 54.65 37 56.3 37 58 C37.33 58 37.66 58 38 58 C38 56.35 38 54.7 38 53 C37.67 53 37.34 53 37 53 Z " fill="#FBACD5" transform="translate(955,789)"/>
<path d="M0 0 C0.6 0.38 1.19 0.77 1.81 1.16 C2.54 1.63 3.27 2.09 4.03 2.57 C9.67 6.66 13.32 10.22 14.81 17.16 C16.43 31.7 13.04 44.1 3.92 55.75 C-3.13 63.8 -10.02 68.55 -20.82 69.48 C-29.19 69.32 -36.55 65.75 -42.53 60.04 C-45.68 56.48 -48.19 53.06 -48.19 48.16 C-48.85 48.16 -49.51 48.16 -50.19 48.16 C-51.24 35.43 -48.49 25.63 -40.82 15.23 C-30.91 3.57 -15.83 -6.04 0 0 Z M-26.65 25.03 C-31.16 31.28 -33.55 37.33 -33.19 45.16 C-32.17 48.28 -32.17 48.28 -30.19 50.16 C-29.2 50.16 -28.21 50.16 -27.19 50.16 C-26.86 50.82 -26.53 51.48 -26.19 52.16 C-18.2 52.01 -18.2 52.01 -11.57 47.89 C-6 40.91 -1.93 33.56 -1.75 24.54 C-1.71 23.41 -1.67 22.29 -1.63 21.12 C-1.89 17.98 -1.89 17.98 -4.54 16.29 C-13.63 12.42 -21.08 18.13 -26.65 25.03 Z M-1.19 22.16 C-1.19 23.81 -1.19 25.46 -1.19 27.16 C-0.86 27.16 -0.53 27.16 -0.19 27.16 C-0.19 25.51 -0.19 23.86 -0.19 22.16 C-0.52 22.16 -0.85 22.16 -1.19 22.16 Z M-48.19 31.16 C-47.19 33.16 -47.19 33.16 -47.19 33.16 Z M-49.19 34.16 C-48.19 37.16 -48.19 37.16 -48.19 37.16 Z M-24.19 52.16 C-24.19 52.49 -24.19 52.82 -24.19 53.16 C-22.21 53.16 -20.23 53.16 -18.19 53.16 C-18.19 52.83 -18.19 52.5 -18.19 52.16 C-20.17 52.16 -22.15 52.16 -24.19 52.16 Z " fill="#FBACD5" transform="translate(484.19140625,960.8359375)"/>
<path d="M0 0 C7 4.57 12.34 10.41 14.81 18.5 C16.31 26.78 16.37 34.76 11.88 42.12 C4.93 50.9 -7.39 55.76 -18.19 57.5 C-30.05 58.31 -39.76 56.9 -48.96 48.97 C-53.29 44.95 -55.88 40.9 -58.19 35.5 C-58.52 34.84 -58.85 34.18 -59.19 33.5 C-60.08 25.18 -56.82 19.63 -52.44 12.75 C-39.99 0.31 -16.74 -8.56 0 0 Z M-38.19 22.5 C-40.74 24.94 -41.18 25.98 -42.19 29.5 C-41.7 33.66 -41.18 35.67 -37.94 38.38 C-29.76 41.72 -20.49 41.24 -12.19 38.5 C-8.88 36.74 -8.88 36.74 -6.19 34.5 C-5.4 33.96 -4.62 33.43 -3.81 32.88 C-1.16 29 -1.49 25.04 -2.19 20.5 C-3.72 17.31 -4.87 16.05 -8.14 14.69 C-18.99 11.64 -29.1 16.81 -38.19 22.5 Z M-1.19 23.5 C-1.19 25.15 -1.19 26.8 -1.19 28.5 C-0.86 28.5 -0.53 28.5 -0.19 28.5 C-0.19 26.85 -0.19 25.2 -0.19 23.5 C-0.52 23.5 -0.85 23.5 -1.19 23.5 Z M-58.19 25.5 C-57.19 28.5 -57.19 28.5 -57.19 28.5 Z " fill="#FBACD5" transform="translate(1033.1875,437.5)"/>
<path d="M0 0 C0 0.66 0 1.32 0 2 C0.99 1.67 1.98 1.34 3 1 C5.7 2.36 5.7 2.36 8.69 4.31 C9.68 4.95 10.68 5.58 11.7 6.24 C12.46 6.82 13.22 7.4 14 8 C14 8.66 14 9.32 14 10 C14.99 10.33 15.98 10.66 17 11 C22.86 19.2 23.07 28.38 22 38 C20.36 44.67 15.64 49.31 10 53 C-1.43 58.35 -16.67 60.59 -29 56.88 C-37.54 53.31 -44.23 47.99 -49 40 C-49.94 36.44 -49.94 36.44 -50 34 C-50.66 34 -51.32 34 -52 34 C-52.43 25.05 -51.54 19.98 -45.81 12.94 C-34.91 1.01 -15.65 -4.04 0 0 Z M-33 24 C-35.34 27.51 -35.5 28.86 -35 33 C-31.84 38.22 -27.63 40.12 -22 42 C-13.19 41.95 -4.09 41.1 3.56 36.44 C5.85 32.56 5.83 28.43 6 24 C5.34 24 4.68 24 4 24 C3.92 23.4 3.84 22.8 3.75 22.19 C2.77 19.33 1.56 18.54 -1 17 C-11.79 13.75 -24.38 16.92 -33 24 Z M6 27 C6 28.65 6 30.3 6 32 C6.33 32 6.66 32 7 32 C7 30.35 7 28.7 7 27 C6.67 27 6.34 27 6 27 Z " fill="#FBACD5" transform="translate(1048,503)"/>
<path d="M0 0 C6.78 6.35 10.46 12.34 11.2 21.7 C10.88 30.13 7.34 34.86 1.43 40.69 C-4.1 45.2 -9.42 47.49 -16.3 49.02 C-17.04 49.18 -17.79 49.35 -18.55 49.52 C-29.21 51.78 -39.5 51.95 -49.27 46.58 C-55.15 42.6 -60.74 36.55 -62.73 29.6 C-62.99 27.7 -62.99 27.7 -63.11 24.77 C-63.44 24.44 -63.77 24.11 -64.11 23.77 C-64.92 16.18 -62.19 9.24 -57.8 3.08 C-43.68 -12.21 -15.52 -12.47 0 0 Z M-46.49 17.58 C-47.73 21.91 -46.64 25.67 -44.74 29.64 C-43.22 32.04 -43.22 32.04 -40.11 32.77 C-28.35 33.85 -17.8 33.58 -7.99 26.52 C-5.83 23.35 -5.31 21.47 -5.57 17.69 C-6.57 14.16 -9.08 12.47 -12.11 10.77 C-23.26 5.08 -38.65 7.24 -46.49 17.58 Z M-37.11 33.77 C-37.11 34.1 -37.11 34.43 -37.11 34.77 C-32.82 34.77 -28.53 34.77 -24.11 34.77 C-24.11 34.44 -24.11 34.11 -24.11 33.77 C-28.4 33.77 -32.69 33.77 -37.11 33.77 Z " fill="#FBACD5" transform="translate(269.11328125,705.234375)"/>
<path d="M0 0 C15.55 11.55 28.93 36.39 33 55 C33.24 57.98 33.23 60.95 33.25 63.94 C33.27 64.74 33.29 65.53 33.31 66.36 C33.34 71.07 33.09 74.2 30 78 C26.3 80.47 24.77 80.26 20.52 79.66 C11.4 77.28 3.99 69.96 -3 64 C-4.07 63.1 -5.13 62.19 -6.2 61.29 C-7.85 59.9 -9.5 58.5 -11.15 57.1 C-17.24 51.93 -23.39 46.82 -29.69 41.89 C-32.31 39.74 -33.72 38.15 -35 35 C-34.38 31.53 -33.67 29.64 -31.12 27.19 C-29.06 26.03 -27.32 25.41 -25 25 C-25 25.66 -25 26.32 -25 27 C-24.44 27.1 -23.88 27.2 -23.3 27.31 C-20.55 28.14 -18.61 29.43 -16.25 31.06 C-15.45 31.61 -14.65 32.16 -13.83 32.72 C-13.22 33.14 -12.62 33.57 -12 34 C-8.03 31.9 -5.44 29.8 -3 26 C-2.41 22.43 -2.84 21.23 -4.93 18.21 C-6.17 16.81 -6.17 16.81 -7.44 15.38 C-11.91 10.26 -11.91 10.26 -13 7 C-11.33 3.98 -9.85 1.63 -7.06 -0.44 C-4.11 -1.24 -2.89 -1.14 0 0 Z M-1 24 C0 26 0 26 0 26 Z M4.81 41.75 C4.26 42.26 3.71 42.77 3.14 43.3 C1.82 44.93 1.82 44.93 2.02 46.93 C3.41 49.86 5.35 51.31 7.88 53.31 C8.76 54.03 9.64 54.75 10.55 55.49 C11.77 56.24 11.77 56.24 13 57 C13.99 56.67 14.98 56.34 16 56 C16 55.34 16 54.68 16 54 C15.34 54 14.68 54 14 54 C14.08 53.2 14.16 52.39 14.25 51.56 C13.92 46.82 12.1 43.22 10 39 C7.32 39 6.72 39.92 4.81 41.75 Z " fill="#FBACD5" transform="translate(929,845)"/>
<path d="M0 0 C2.41 1.26 4.52 2.48 6.75 4 C7.36 4.4 7.97 4.81 8.6 5.23 C13.28 8.38 17.64 11.84 21.96 15.48 C25.72 18.6 29.61 21.55 33.5 24.5 C35.66 26.16 37.83 27.81 39.99 29.47 C41.26 30.44 42.54 31.4 43.82 32.36 C45.39 33.54 46.95 34.74 48.5 35.94 C49.36 36.59 50.21 37.23 51.09 37.9 C53.53 40.58 53.83 42.42 54 46 C51.87 50.57 51.87 50.57 49 52 C44.41 52.78 42.11 51.62 38.44 49.06 C37.71 48.52 36.99 47.97 36.25 47.41 C33.8 45.88 31.84 45.39 29 45 C27.79 46.21 26.61 47.45 25.44 48.69 C24.78 49.37 24.11 50.06 23.43 50.76 C21.78 52.9 21.78 52.9 22 55.46 C23.28 58.7 25.08 60.45 27.56 62.88 C31.9 67.51 31.9 67.51 32.81 71.88 C31.85 75.59 31.27 76.95 28 79 C23.88 79.82 21.62 80.07 18.09 77.73 C4.7 65.11 -12.44 41.71 -14 23 C-14.33 22.01 -14.66 21.02 -15 20 C-15.95 7.31 -15.95 7.31 -12 2 C-7.88 -1.54 -5.15 -1.12 0 0 Z M3 21 C2.67 21.66 2.34 22.32 2 23 C3.07 25.77 4.2 28.43 5.44 31.12 C5.78 31.88 6.11 32.63 6.46 33.41 C7.3 35.28 8.15 37.14 9 39 C13.2 38.23 14.52 36.45 17 33 C13.51 27.99 8.95 24.48 4 21 C3.67 21 3.34 21 3 21 Z " fill="#FBACD5" transform="translate(319,332)"/>
<path d="M0 0 C3.44 1.15 5.22 2.12 7.62 4.88 C8.78 10.34 7.44 14.76 5.29 19.75 C4.05 23.7 4.4 27.78 4.62 31.88 C5.81 30.54 7 29.21 8.19 27.88 C8.92 27.06 9.64 26.24 10.39 25.4 C12.96 22.5 15.48 19.56 17.98 16.6 C19.75 14.74 21.47 13.26 23.62 11.88 C27.61 11.88 29.32 12.64 32.5 15.06 C35.08 18.48 35.19 19.68 34.62 23.88 C33.09 26.11 31.65 27.91 29.81 29.88 C28.79 31.03 27.77 32.18 26.75 33.34 C26.23 33.92 25.7 34.51 25.16 35.12 C22.78 37.84 20.54 40.65 18.31 43.5 C17.87 44.06 17.43 44.63 16.98 45.21 C9.7 54.58 2.62 64.14 -4.16 73.88 C-6.38 76.88 -6.38 76.88 -8.38 77.88 C-12.11 78.29 -13.89 78.17 -17.12 76.19 C-19.54 73.71 -20.5 72.21 -21.38 68.88 C-20.43 66.45 -20.43 66.45 -18.81 64 C-18.25 63.14 -17.69 62.27 -17.11 61.38 C-15.6 59.2 -14.06 57.03 -12.5 54.88 C-10.18 52.22 -10.18 52.22 -10.38 49.88 C-12.63 50.66 -14.88 51.46 -17.12 52.25 C-17.76 52.47 -18.39 52.69 -19.05 52.92 C-21.64 53.84 -24.16 54.76 -26.61 56.01 C-29.65 57.5 -32.07 57.28 -35.38 56.88 C-38.37 54.6 -39.98 52.87 -41.38 49.38 C-41.38 45.86 -40.58 44.64 -38.38 41.88 C-35.4 40.13 -32.27 38.88 -29.06 37.62 C-27.8 37.1 -27.8 37.1 -26.51 36.56 C-22.15 34.79 -18.09 33.4 -13.38 32.88 C-13.42 32.08 -13.47 31.28 -13.52 30.45 C-13.86 20 -12.14 10.16 -5.38 1.88 C-2.38 -0.12 -2.38 -0.12 0 0 Z M-12.38 19.88 C-12.38 21.52 -12.38 23.17 -12.38 24.88 C-12.05 24.88 -11.71 24.88 -11.38 24.88 C-11.38 23.23 -11.38 21.58 -11.38 19.88 C-11.7 19.88 -12.04 19.88 -12.38 19.88 Z M-12.38 31.88 C-11.38 33.88 -11.38 33.88 -11.38 33.88 Z " fill="#FBACD5" transform="translate(413.375,927.125)"/>
<path d="M0 0 C10.3 5.36 18.81 11.39 22.61 22.75 C24.02 30.6 24.35 40.06 20 46.94 C12.36 57.42 3.32 61.68 -9 64.94 C-9.75 65.16 -10.49 65.39 -11.26 65.62 C-16.16 67.05 -22 68.31 -27 66.94 C-30.6 63.68 -31.91 62.31 -32.23 57.43 C-32.06 56.08 -31.85 54.72 -31.62 53.38 C-31.52 52.62 -31.41 51.87 -31.31 51.1 C-30.91 48.37 -30.46 45.65 -30 42.94 C-29.81 41.79 -29.62 40.64 -29.42 39.46 C-28.2 32.08 -26.92 24.71 -25.59 17.34 C-24.85 13.06 -24.19 8.76 -23.54 4.46 C-22.81 1.07 -22.07 -1.34 -19.15 -3.31 C-12.5 -5.64 -6.04 -2.88 0 0 Z M-22 1.94 C-21 3.94 -21 3.94 -21 3.94 Z M-7 14.94 C-9.01 20.35 -10.06 25.84 -11.12 31.5 C-11.31 32.43 -11.49 33.37 -11.68 34.33 C-11.85 35.23 -12.02 36.13 -12.2 37.07 C-12.43 38.29 -12.43 38.29 -12.66 39.54 C-13.01 42.03 -13.06 44.42 -13 46.94 C-6.6 46.65 -2.29 45.64 3 41.94 C7 37.53 7.42 33.13 7.34 27.37 C7.16 24.7 7.16 24.7 5 22.12 C-0.56 17.46 -0.56 17.46 -7 14.94 Z M-25 17.94 C-24 21.94 -24 21.94 -24 21.94 Z M-26 23.94 C-25 26.94 -25 26.94 -25 26.94 Z M-29 42.94 C-28 45.94 -28 45.94 -28 45.94 Z M-30 47.94 C-29 51.94 -29 51.94 -29 51.94 Z " fill="#FBACD5" transform="translate(687,188.0625)"/>
<path d="M0 0 C2.81 1.56 2.81 1.56 5 4 C5.88 7.53 6.06 8.64 5 12 C2.3 16.27 -0.79 20.09 -4 24 C-4.66 24.99 -5.32 25.98 -6 27 C0 26.09 5.18 24.56 10.75 22.12 C16.38 19.85 16.38 19.85 19.09 20.5 C20.69 21.56 20.69 21.56 23 24 C23.99 24.99 23.99 24.99 25 26 C25.41 29.68 25.63 32.04 23.56 35.19 C16.08 40.48 6.16 44 -3 44 C-3.04 44.97 -3.07 45.93 -3.11 46.93 C-3.64 57.31 -4.19 68.19 -12 76 C-15.01 76.35 -17.09 76.57 -20 76 C-23.06 73.44 -23.06 73.44 -25 70 C-25 65.26 -23.44 61.51 -21.7 57.2 C-20.44 53.24 -20.25 49.13 -20 45 C-21.1 46.1 -22.2 47.2 -23.3 48.31 C-24.6 49.6 -25.89 50.88 -27.2 52.16 C-27.98 52.93 -28.76 53.7 -29.56 54.5 C-30.34 55.27 -31.13 56.04 -31.93 56.84 C-34.15 59.04 -34.15 59.04 -36.12 62.06 C-38 64 -38 64 -41.44 64.62 C-45.81 63.86 -47.21 62.37 -50 59 C-50.33 58.67 -50.66 58.34 -51 58 C-50.88 51.36 -48.42 48.59 -43.94 44.19 C-42.74 42.96 -41.55 41.73 -40.36 40.49 C-39.49 39.6 -39.49 39.6 -38.6 38.69 C-35.82 35.76 -33.37 32.6 -30.89 29.42 C-28.81 26.76 -26.66 24.16 -24.5 21.56 C-21.44 17.84 -18.55 14.05 -15.75 10.12 C-6.98 -2.11 -6.98 -2.11 0 0 Z M-7 27 C-7.33 27.66 -7.66 28.32 -8 29 C-6.02 29 -4.04 29 -2 29 C-4.38 27.59 -4.38 27.59 -7 27 Z " fill="#FBACD5" transform="translate(885,250)"/>
<path d="M0 0 C2.63 2.63 2.33 3.75 2.38 7.44 C2.23 18.27 0.22 28.92 -1.47 39.6 C-1.97 42.82 -2.43 46.04 -2.86 49.27 C-2.99 50.23 -3.12 51.19 -3.26 52.18 C-3.5 53.97 -3.73 55.76 -3.96 57.55 C-4.07 58.35 -4.18 59.14 -4.29 59.96 C-4.38 60.65 -4.47 61.34 -4.56 62.05 C-5.06 64.29 -5.82 66.03 -7 68 C-11.81 70.4 -18.38 68.46 -23.3 67.06 C-34.66 63 -43.32 56.91 -49 46 C-49 44.68 -49 43.36 -49 42 C-49.66 41.67 -50.32 41.34 -51 41 C-53.31 36.38 -52.77 29.57 -51.32 24.71 C-50.34 22.69 -49.24 20.87 -48 19 C-47.62 18.35 -47.24 17.69 -46.86 17.02 C-39.49 5.54 -25.6 1.08 -13 -2 C-7.44 -3.05 -4.87 -3.06 0 0 Z M-24 19.69 C-25.03 20.19 -26.06 20.69 -27.12 21.2 C-31.37 23.86 -33.46 26.76 -35.44 31.31 C-36.16 36.04 -35.6 38.98 -33 43 C-29.8 46.25 -26.91 48.89 -22.24 49.16 C-21.5 49.1 -20.76 49.05 -20 49 C-18.31 40.21 -16.7 31.44 -15.43 22.57 C-15 20 -15 20 -14 17 C-18.32 17 -20.19 17.8 -24 19.69 Z M-16 23 C-15 27 -15 27 -15 27 Z M-51 27 C-50 30 -50 30 -50 30 Z M-18 38 C-17 40 -17 40 -17 40 Z M-19 44 C-19 45.65 -19 47.3 -19 49 C-18.67 49 -18.34 49 -18 49 C-18 47.35 -18 45.7 -18 44 C-18.33 44 -18.66 44 -19 44 Z " fill="#FBACD5" transform="translate(625,996)"/>
<path d="M0 0 C1.27 -0 2.54 -0.01 3.85 -0.01 C6.94 0.12 6.94 0.12 7.94 1.12 C9.47 1.17 11.01 1.14 12.55 1.08 C13.53 1.05 14.51 1.02 15.52 0.98 C16.59 0.94 17.66 0.9 18.76 0.86 C21.01 0.8 23.26 0.73 25.51 0.66 C29.06 0.55 32.62 0.44 36.18 0.31 C39.6 0.18 43.02 0.08 46.45 -0.01 C47.51 -0.06 48.57 -0.1 49.66 -0.15 C55.8 -0.29 59.26 0.03 63.94 4.12 C65.52 5.7 65.18 7.32 65.25 9.5 C65.31 10.69 65.31 10.69 65.36 11.9 C64.94 14.12 64.94 14.12 63.22 15.73 C60.59 17.34 59.02 17.54 55.95 17.64 C54.55 17.69 54.55 17.69 53.12 17.74 C52.15 17.77 51.18 17.79 50.19 17.81 C49.2 17.85 48.22 17.88 47.21 17.92 C44.78 18 42.36 18.07 39.94 18.12 C39.44 19.61 39.44 19.61 38.94 21.12 C39.51 21.41 40.09 21.7 40.68 21.99 C44.38 23.85 48.01 25.81 51.62 27.81 C52.41 28.22 53.19 28.63 54 29.05 C59.67 32.24 59.67 32.24 61.04 36.78 C60.91 40.84 59.81 43.25 56.94 46.12 C51.25 46.66 47.62 45.37 42.88 42.44 C42.29 42.1 41.7 41.76 41.1 41.41 C37.04 39 33.5 36.22 29.94 33.12 C26.7 34.63 23.92 36.52 21 38.56 C14.55 42.71 7 45.68 -0.8 44.82 C-4.18 43.78 -5.31 42.15 -7.06 39.12 C-7.06 35.59 -6.64 33.83 -4.39 31.09 C-0.84 28.1 3.19 27.1 7.55 25.66 C11.7 23.78 14.65 21.22 17.94 18.12 C16.8 18.12 16.8 18.12 15.63 18.11 C12.17 18.08 8.71 18.01 5.25 17.94 C4.05 17.93 2.85 17.93 1.62 17.92 C-8.3 17.67 -8.3 17.67 -11.32 14.8 C-13.54 11.4 -14.21 9.19 -14.06 5.12 C-9.53 0.47 -6.32 -0.01 0 0 Z M45.94 1.12 C45.94 1.46 45.94 1.78 45.94 2.12 C47.59 2.12 49.24 2.12 50.94 2.12 C50.94 1.79 50.94 1.47 50.94 1.12 C49.29 1.12 47.64 1.12 45.94 1.12 Z M-13.06 5.12 C-12.06 7.12 -12.06 7.12 -12.06 7.12 Z " fill="#FBACD5" transform="translate(1019.0625,573.875)"/>
<path d="M0 0 C3.44 1.04 6.57 2.52 9.77 4.15 C10.37 4.44 10.97 4.74 11.59 5.04 C14.48 6.5 16.92 7.97 19.39 10.07 C21.63 12.02 21.63 12.02 24.36 12.25 C27.15 11.77 28.23 11.02 30.33 9.15 C36.74 4.02 45.42 -0.16 53.77 -0.16 C56.64 0.77 56.64 0.77 58.77 2.84 C60.13 6.73 60.28 9.62 58.66 13.44 C56.23 16.52 54.22 17.13 50.52 18.34 C45.14 20.23 41.17 22.25 36.77 25.84 C37.95 27.25 37.95 27.25 41.34 26.9 C43.61 26.87 45.88 26.84 48.16 26.8 C61.43 26.66 61.43 26.66 66.77 31.84 C68.19 34.68 68.08 36.69 67.77 39.84 C66.38 42 66.38 42 63.77 43.84 C60.4 44.45 57.06 44.42 53.65 44.41 C52.64 44.42 51.63 44.44 50.6 44.45 C47.36 44.49 44.13 44.51 40.89 44.52 C37.73 44.55 34.57 44.59 31.42 44.63 C29.32 44.65 27.23 44.67 25.13 44.68 C19.88 44.73 14.67 44.87 9.43 45.22 C8.42 45.28 7.41 45.34 6.38 45.41 C4.47 45.54 2.56 45.68 0.66 45.85 C-5.64 46.27 -5.64 46.27 -8.79 43.97 C-10.24 41.83 -10.94 40.44 -11.3 37.9 C-11.41 37.25 -11.53 36.6 -11.64 35.93 C-10.93 32.28 -9.18 31.02 -6.23 28.84 C-2.82 27.96 0.57 27.73 4.08 27.52 C5.01 27.45 5.94 27.38 6.9 27.3 C9.19 27.13 11.48 26.97 13.77 26.84 C9.92 22.43 5.31 20.36 0.17 17.84 C-3.48 15.98 -6.27 14.5 -8.23 10.84 C-8.23 6.8 -7.45 5.12 -4.98 1.9 C-2.23 -0.16 -2.23 -0.16 0 0 Z M49.77 27.84 C49.77 28.17 49.77 28.5 49.77 28.84 C51.42 28.84 53.07 28.84 54.77 28.84 C54.77 28.51 54.77 28.18 54.77 27.84 C53.12 27.84 51.47 27.84 49.77 27.84 Z " fill="#FBACD5" transform="translate(202.234375,639.1640625)"/>
<path d="M0 0 C3.35 2.35 5.66 4.55 7.75 8.06 C8.16 8.73 8.56 9.41 8.98 10.1 C12.03 15.81 11.17 21.82 10 28 C7.07 34.41 0.95 39.43 -5 43 C-13.22 45.48 -25.95 46.21 -33.8 42.5 C-39.78 38.69 -44.01 34.42 -47 28 C-47.37 27.37 -47.74 26.74 -48.12 26.09 C-50.45 20.54 -48.43 13.42 -46.25 8.06 C-43 1.59 -37.64 -1.21 -31.15 -4.01 C-20.45 -7.38 -9.86 -4.78 0 0 Z " fill="#FBACD5" transform="translate(658,604)"/>
<path d="M0 0 C1.97 0.65 3.95 1.17 5.97 1.65 C5.97 2.31 5.97 2.97 5.97 3.65 C7.27 3.75 8.57 3.85 9.91 3.96 C14.9 4.52 19.29 5.87 23.97 7.65 C24.84 7.97 25.7 8.3 26.59 8.63 C39.06 13.45 39.06 13.45 41.97 18.65 C41.94 21.3 41.76 23.56 41.35 26.15 C41.25 26.85 41.14 27.56 41.04 28.29 C38.29 46.3 38.29 46.3 32.97 50.65 C29.29 51.28 27.49 50.91 24.16 49.21 C21.02 45.53 20.81 42.4 20.97 37.65 C21.36 34.96 21.88 32.36 22.5 29.71 C23.05 27.68 23.05 27.68 22.97 25.65 C19.35 24.33 16.88 23.65 12.97 23.65 C12.83 24.55 12.83 24.55 12.68 25.48 C11.99 29.17 11.37 32.05 9.29 35.21 C5.97 37.27 3.79 37.19 -0.03 36.65 C-2.4 35.27 -2.4 35.27 -4.03 32.65 C-5.3 26.87 -5.16 21.42 -4.03 15.65 C-5.12 15.5 -6.21 15.36 -7.34 15.21 C-11.03 14.65 -11.03 14.65 -14.03 13.65 C-14.08 14.63 -14.13 15.61 -14.18 16.61 C-15.25 35.52 -15.25 35.52 -19.21 40.27 C-23.07 42.16 -24.96 41.96 -29.03 40.65 C-31.23 38.59 -32.64 37.24 -34.03 34.65 C-34.09 31.69 -33.94 29.55 -33.4 26.71 C-33.17 25.21 -32.93 23.7 -32.7 22.19 C-32.58 21.44 -32.46 20.68 -32.34 19.9 C-31.86 16.44 -31.74 13.01 -31.59 9.52 C-31.26 4.2 -30.88 0.19 -28.03 -4.35 C-21.61 -9.66 -7.03 -2.44 0 0 Z M-30.03 2.65 C-29.03 5.65 -29.03 5.65 -29.03 5.65 Z M-3.03 16.65 C-2.03 18.65 -2.03 18.65 -2.03 18.65 Z M-31.03 17.65 C-30.03 20.65 -30.03 20.65 -30.03 20.65 Z M-32.03 24.65 C-31.03 28.65 -31.03 28.65 -31.03 28.65 Z M23.97 27.65 C24.97 29.65 24.97 29.65 24.97 29.65 Z " fill="#FBACD5" transform="translate(1033.02734375,666.3515625)"/>
<path d="M0 0 C0 0.66 0 1.32 0 2 C0.96 2.22 0.96 2.22 1.94 2.44 C4 3 4 3 5 4 C5.39 11.06 4.93 18.01 4 25 C5.09 25.31 6.19 25.62 7.31 25.94 C9.55 26.58 11.79 27.26 14 28 C14.56 25.84 15.03 23.78 15.31 21.56 C16.22 18.19 17.5 16.43 20 14 C23.25 13.19 23.25 13.19 26 13 C26 13.66 26 14.32 26 15 C27.21 15.43 27.21 15.43 28.44 15.88 C31 17 31 17 32 19 C32.07 21.37 32.08 23.75 32.06 26.12 C32.05 27.41 32.04 28.69 32.04 30.01 C32.02 31 32.01 31.98 32 33 C34.97 33.66 37.94 34.32 41 35 C40.96 33.95 40.92 32.9 40.88 31.81 C40.88 24.75 41.21 16.13 45 10 C47.98 7.95 50.44 7.41 54 8 C58.26 10.57 58.26 10.57 60 13 C60.76 16.54 60.27 19.79 59.49 23.29 C59 26.03 58.84 28.57 58.79 31.34 C58.76 32.34 58.73 33.34 58.7 34.37 C58.65 36.46 58.61 38.54 58.57 40.63 C58.26 50.74 58.26 50.74 54 55 C47.74 55.38 42.56 54.36 36.56 52.62 C35.19 52.24 35.19 52.24 33.79 51.84 C31.71 51.24 29.64 50.65 27.57 50.04 C24.99 49.29 22.42 48.55 19.83 47.81 C16.11 46.76 12.39 45.68 8.67 44.59 C7.19 44.16 5.71 43.73 4.23 43.31 C2.12 42.71 0.03 42.09 -2.07 41.46 C-3.28 41.11 -4.5 40.76 -5.75 40.39 C-9.43 38.81 -11.43 37.05 -14 34 C-15.75 28.71 -14.63 23.39 -13.81 18 C-13.7 17.12 -13.58 16.25 -13.47 15.34 C-12.67 9.99 -11.54 6.27 -8 2 C-4.77 -0.15 -3.72 -0.2 0 0 Z M-12 12 C-11 16 -11 16 -11 16 Z M42 27 C43 30 43 30 43 30 Z " fill="#FBACD5" transform="translate(212,542)"/>
<path d="M0 0 C2.52 2.32 4.2 5.1 6 8 C6.68 9.06 7.35 10.12 8.05 11.21 C11.29 16.36 14.31 21.53 17 27 C17.59 27.93 17.59 27.93 18.19 28.88 C19.52 32.37 19.3 35.27 19 39 C17.93 40.72 17.93 40.72 16 42 C13.48 42.34 11.28 42.47 8.75 42.44 C8.02 42.43 7.29 42.43 6.54 42.43 C-1.12 42.24 -8.56 40.89 -16.07 39.42 C-21.16 38.43 -25.81 37.77 -31 38 C-30.31 38.95 -29.63 39.91 -28.92 40.89 C-28.01 42.15 -27.1 43.42 -26.19 44.69 C-25.74 45.31 -25.28 45.94 -24.82 46.58 C-17.98 56.11 -17.98 56.11 -18.06 60.62 C-19 64 -19 64 -20.62 65.94 C-23.94 67.42 -26.39 67.34 -30 67 C-32.2 65.26 -32.2 65.26 -34.12 62.69 C-34.88 61.7 -35.63 60.7 -36.4 59.68 C-41.22 52.92 -45.89 46.06 -50.52 39.17 C-51.91 37.13 -53.36 35.14 -54.82 33.15 C-57.33 29.53 -58.16 27.4 -58 23 C-55.85 20.32 -54.07 18.54 -51 17 C-47.94 16.88 -47.94 16.88 -45 17 C-44.67 17.33 -44.34 17.66 -44 18 C-41.67 18.21 -39.34 18.37 -37 18.5 C-30.11 18.89 -30.11 18.89 -29 20 C-27.51 20.21 -26 20.37 -24.5 20.5 C-20.11 20.89 -20.11 20.89 -19 22 C-17.4 22.21 -15.79 22.37 -14.19 22.5 C-11.02 22.76 -8.07 23.14 -5 24 C-5.95 22.04 -6.91 20.08 -7.88 18.12 C-8.41 17.03 -8.94 15.94 -9.49 14.82 C-10.85 11.96 -10.85 11.96 -13 10 C-12.67 3.87 -12.67 3.87 -10.56 1.12 C-6.81 -1.58 -4.44 -1.26 0 0 Z " fill="#FBACD5" transform="translate(991,379)"/>
<path d="M0 0 C2.14 1.56 2.14 1.56 4.25 3.44 C4.96 4.05 5.66 4.67 6.39 5.31 C8 7 8 7 8 9 C8.56 9.23 9.11 9.45 9.69 9.69 C11.99 10.99 13.56 12.46 15.37 14.37 C18.4 17.4 21.67 20.18 24.89 23.01 C27.35 25.33 27.87 26.4 28.56 29.69 C27.27 37.29 17.88 41.59 11.94 45.81 C5.2 50.54 -1.61 55.15 -8.49 59.66 C-10.81 61.2 -13.1 62.77 -15.36 64.4 C-16.39 65.13 -17.43 65.87 -18.5 66.62 C-19.4 67.28 -20.29 67.93 -21.22 68.6 C-24.9 70.45 -26.93 70.69 -31 70 C-33.7 68.21 -35.81 66 -38 63.62 C-38.91 62.67 -38.91 62.67 -39.84 61.7 C-49.64 51.24 -49.64 51.24 -52 46 C-51.69 41.82 -50.54 40.57 -47.69 37.56 C-45 36 -45 36 -42.59 36.16 C-39.49 37.17 -38.11 38.46 -35.88 40.81 C-35.21 41.5 -34.55 42.19 -33.87 42.89 C-32.12 44.86 -30.54 46.87 -29 49 C-25.05 48.45 -21.65 47.61 -18 46 C-19.12 42.64 -20.54 40.27 -22.75 37.56 C-24.76 34.81 -25.04 34.38 -24.69 30.81 C-22.57 27.28 -20.73 25.75 -17 24 C-12.47 24.77 -10.03 27.72 -7 31 C-6.34 31.66 -5.68 32.32 -5 33 C-1.41 32.61 1.7 31.41 5 30 C3.61 25.46 1.65 23.9 -2 21 C-3.68 19.28 -5.3 17.51 -6.88 15.69 C-7.68 14.78 -8.48 13.88 -9.3 12.95 C-11.49 9.15 -11.08 7.17 -10 3 C-7.31 -0.66 -4.24 -1.59 0 0 Z " fill="#FBACD5" transform="translate(353,864)"/>
<path d="M0 0 C6.79 2.12 10.58 7.9 14.84 13.26 C16.51 15.33 18.22 17.22 20.06 19.12 C22.81 23.12 22.69 25.15 22 29.94 C20.44 32.44 20.44 32.44 18 33.94 C14.68 34.37 14.68 34.37 11 33.94 C8.16 31.6 8.16 31.6 5.62 28.56 C4.77 27.56 3.92 26.57 3.04 25.54 C1 22.94 1 22.94 0 20.94 C-3.96 21.5 -6.67 22.75 -10 24.94 C-9.54 27.91 -8.73 29.31 -6.94 31.81 C-4.77 35.32 -4.3 36.9 -5 40.94 C-6.5 43.31 -6.5 43.31 -9 44.94 C-13.89 46 -13.89 46 -17 44.94 C-20.07 42.23 -22.56 39.21 -25 35.94 C-25.77 36.24 -26.53 36.55 -27.32 36.87 C-29.88 37.89 -32.44 38.91 -35 39.94 C-32.74 44.15 -29.86 47.29 -26.44 50.56 C-19.21 57.53 -19.21 57.53 -18.56 61.81 C-19 64.94 -19 64.94 -21.06 67.81 C-24.8 70.52 -26.46 70.56 -31 69.94 C-33.33 67.96 -35.03 66.26 -36.94 63.94 C-37.98 62.74 -39.02 61.54 -40.06 60.34 C-40.56 59.76 -41.06 59.17 -41.58 58.57 C-43.44 56.43 -45.42 54.43 -47.44 52.44 C-48.06 51.82 -48.68 51.21 -49.32 50.57 C-50.82 49.11 -52.34 47.68 -53.88 46.25 C-56.1 43.83 -57.19 42.12 -58 38.94 C-57.51 35.32 -57.08 35 -53.97 32.61 C-52.68 31.77 -51.37 30.94 -50.06 30.12 C-48.78 29.31 -47.5 28.49 -46.22 27.67 C-45.54 27.24 -44.87 26.8 -44.17 26.36 C-41.83 24.82 -39.55 23.22 -37.27 21.6 C-31.55 17.57 -25.63 13.87 -19.69 10.19 C-18.63 9.53 -17.57 8.87 -16.48 8.19 C-13.66 6.43 -10.83 4.68 -8 2.94 C-7.13 2.37 -6.25 1.81 -5.35 1.23 C-3 -0.06 -3 -0.06 0 0 Z " fill="#FBACD5" transform="translate(957,322.0625)"/>
<path d="M0 0 C4.48 3.15 7.39 6.87 10.56 11.25 C11.61 12.68 12.66 14.11 13.71 15.54 C14.25 16.28 14.79 17.01 15.34 17.77 C17 19.99 18.7 22.18 20.41 24.36 C21.24 25.42 21.24 25.42 22.08 26.5 C23.13 27.84 24.18 29.18 25.25 30.51 C28.38 34.56 30.13 37.68 30 43 C28.41 45.68 28.41 45.68 26 48 C22.94 48.57 22.94 48.57 19.33 48.46 C18.68 48.45 18.03 48.43 17.35 48.41 C10.13 48.12 3 47.08 -4.12 45.92 C-6.35 45.56 -8.59 45.21 -10.83 44.87 C-21.66 43.17 -21.66 43.17 -24 42 C-20.61 48.26 -20.61 48.26 -16.69 54.19 C-14.68 57.54 -14.26 59.16 -15 63 C-17.46 66.32 -18.93 67.78 -23 68.62 C-28.6 67.46 -31.59 62.42 -34.64 57.89 C-35.05 57.26 -35.46 56.64 -35.88 56 C-36.3 55.35 -36.73 54.69 -37.17 54.02 C-48.01 37.28 -48.01 37.28 -47.99 31.31 C-47 28 -47 28 -44.89 26.08 C-41.34 24.75 -38.54 24.67 -34.75 24.75 C-33.43 24.78 -32.12 24.8 -30.76 24.83 C-18.63 25.37 -18.63 25.37 -17 27 C-16.2 27 -15.39 27 -14.56 27 C-12 27 -12 27 -10 28 C-8.17 28.2 -6.34 28.36 -4.5 28.5 C0.78 28.89 0.78 28.89 3 30 C2.62 29.45 2.23 28.89 1.84 28.32 C0.1 25.8 -1.64 23.27 -3.38 20.75 C-3.98 19.88 -4.58 19 -5.2 18.11 C-5.78 17.26 -6.36 16.42 -6.96 15.55 C-7.76 14.38 -7.76 14.38 -8.58 13.2 C-9.88 11.18 -10.98 9.17 -12 7 C-6.15 -2.61 -6.15 -2.61 0 0 Z " fill="#FBACD5" transform="translate(317,811)"/>
<path d="M0 0 C8.16 2.81 12.46 11.85 16.56 19 C17.61 20.78 18.65 22.56 19.7 24.33 C20.45 25.61 20.45 25.61 21.22 26.9 C23.02 29.9 24.92 32.79 26.88 35.69 C27.49 36.6 28.1 37.51 28.73 38.45 C29.73 39.93 30.73 41.4 31.74 42.86 C40.02 54.95 40.02 54.95 39.32 61.16 C37.82 65.66 34.75 68.78 31.62 72.25 C30.51 73.54 29.41 74.83 28.3 76.12 C17.94 88.2 17.94 88.2 15.73 88.56 C9.62 88.89 9.62 88.89 6.88 87.12 C5.5 85.62 5.5 85.62 3.62 82.25 C3.83 77.23 5.35 74.91 8.81 71.38 C11.73 68.28 14.61 65.21 17.25 61.88 C17.74 61.27 18.22 60.66 18.73 60.04 C19.82 58.27 19.82 58.27 19.37 56.2 C18.41 53.68 17.07 51.51 15.62 49.25 C11.95 50.76 9.98 52.92 7.38 55.88 C2.45 60.91 2.45 60.91 -1.69 61.12 C-5.38 60.25 -5.38 60.25 -7.81 58.06 C-10.38 53.45 -10.38 53.45 -10.38 50.25 C-7.87 45.44 -4.53 42.63 -0.38 39.25 C2.21 37.03 2.21 37.03 3.62 34.25 C2.35 27.1 -1.68 21.69 -5.65 15.75 C-6.14 14.98 -6.63 14.22 -7.14 13.43 C-7.59 12.75 -8.04 12.06 -8.51 11.36 C-9.65 8.58 -9.29 7.07 -8.38 4.25 C-5.61 1.16 -4.15 0.31 0 0 Z " fill="#FBACD5" transform="translate(886.375,884.75)"/>
<path d="M0 0 C1.99 0.77 1.99 0.77 3.99 2.77 C4.22 4.65 4.22 4.65 4.18 6.77 C4.17 7.47 4.16 8.18 4.16 8.9 C3.99 10.77 3.99 10.77 2.99 12.77 C2.33 12.77 1.67 12.77 0.99 12.77 C0.76 13.29 0.54 13.81 0.31 14.35 C-1.51 17.68 -3.8 20.55 -6.14 23.52 C-6.6 24.13 -7.07 24.73 -7.55 25.35 C-8.7 26.83 -9.86 28.3 -11.01 29.77 C-10.41 30.91 -9.82 32.04 -9.2 33.21 C-8.69 34.17 -8.69 34.17 -8.18 35.14 C-7.02 37.1 -7.02 37.1 -4.01 37.77 C-3.41 37.07 -2.81 36.38 -2.18 35.66 C-1.38 34.75 -0.59 33.84 0.24 32.9 C1.42 31.54 1.42 31.54 2.63 30.16 C4.75 28.01 6.19 26.79 8.99 25.77 C12.52 25.86 13.95 26.75 16.8 28.9 C18.99 31.77 18.99 31.77 19.61 35.27 C18.83 39.65 17.31 40.91 13.99 43.77 C13.43 44.54 12.87 45.3 12.3 46.09 C11.87 46.64 11.43 47.2 10.99 47.77 C10.33 47.77 9.67 47.77 8.99 47.77 C7.32 50.77 6.25 53.34 5.99 56.77 C7.44 59.5 7.44 59.5 9.61 62.09 C10.35 63.05 11.08 64.01 11.84 65 C12.55 65.91 13.26 66.83 13.99 67.77 C16.92 71.77 18.83 74.6 19.49 79.59 C18.95 83.05 18.67 83.71 15.99 85.77 C12.46 86.86 9.52 86.84 5.99 85.77 C2.6 82.56 0.36 78.77 -2.01 74.77 C-3.11 73.04 -4.22 71.31 -5.32 69.59 C-5.89 68.68 -6.46 67.78 -7.04 66.84 C-9.41 63.16 -11.89 59.56 -14.39 55.96 C-15.8 53.91 -17.21 51.85 -18.62 49.79 C-19.54 48.47 -20.45 47.14 -21.37 45.82 C-22.64 43.98 -23.89 42.13 -25.14 40.27 C-25.86 39.21 -26.59 38.15 -27.33 37.05 C-29.42 32.97 -29.89 30.36 -30.01 25.77 C-29.04 23.34 -29.04 23.34 -27.51 21.34 C-26.96 20.59 -26.4 19.84 -25.83 19.07 C-25.23 18.31 -24.63 17.56 -24.01 16.77 C-23.42 15.98 -22.83 15.19 -22.23 14.38 C-19.08 10.21 -15.86 6.32 -12.01 2.77 C-11.27 1.97 -10.53 1.16 -9.76 0.34 C-6.06 -1.77 -3.99 -1.03 0 0 Z " fill="#FBACD5" transform="translate(370.01171875,283.2265625)"/>
<path d="M0 0 C3.46 1.25 5.47 2.31 7.94 5.06 C8.29 8.51 8.5 10.93 6.94 14.06 C6.28 14.06 5.62 14.06 4.94 14.06 C3.51 18.05 2.54 21.87 1.94 26.06 C2.93 26.06 3.92 26.06 4.94 26.06 C4.94 26.72 4.94 27.38 4.94 28.06 C5.6 27.73 6.26 27.4 6.94 27.06 C14.85 26.37 20.26 28.34 26.62 33.05 C33.5 38.83 36.47 43.12 37.31 52 C36.85 60.73 33.74 66.26 27.32 72.18 C20.56 77.53 13.38 77.92 4.94 77.06 C2.08 76.39 0.48 75.64 -2.06 74.06 C-3 71.88 -3 71.88 -3.06 70.06 C-3.72 70.06 -4.38 70.06 -5.06 70.06 C-4.81 66.4 -4.55 64.57 -1.95 61.89 C1.58 59.65 3.84 59.57 8 59.5 C12.88 59.44 12.88 59.44 17.39 57.83 C19.16 56.17 19.16 56.17 19.11 53.8 C18.97 53 18.83 52.2 18.69 51.38 C18.56 50.57 18.43 49.76 18.3 48.93 C18.18 48.31 18.06 47.7 17.94 47.06 C12.84 45.19 8.34 43.95 2.94 43.38 C-3.72 42.36 -7.94 39.34 -12.06 34.06 C-13.12 30.56 -13.12 30.56 -13.06 28.06 C-13.72 28.06 -14.38 28.06 -15.06 28.06 C-16.09 18.37 -13.66 10.8 -7.54 3.16 C-5.06 0.8 -3.42 0.07 0 0 Z M-14.06 17.06 C-13.06 20.06 -13.06 20.06 -13.06 20.06 Z M7.94 61.06 C7.94 61.39 7.94 61.72 7.94 62.06 C9.59 62.06 11.24 62.06 12.94 62.06 C12.94 61.73 12.94 61.4 12.94 61.06 C11.29 61.06 9.64 61.06 7.94 61.06 Z M-4.06 66.06 C-3.06 68.06 -3.06 68.06 -3.06 68.06 Z " fill="#FBACD5" transform="translate(466.0625,216.9375)"/>
<path d="M0 0 C2.35 1.46 4.53 2.95 6.48 4.91 C7.07 11.12 7.07 11.12 4.83 14.14 C1.83 16.4 0.37 16.21 -3.33 15.91 C-9.1 15.73 -12.07 16.16 -16.52 19.91 C-17.71 23.58 -17.74 25.25 -16.52 28.91 C-13.54 30.07 -13.54 30.07 -10.52 30.91 C-10.02 31.41 -10.02 31.41 -9.52 31.91 C-8.59 31.91 -7.66 31.91 -6.7 31.91 C0.64 31.91 7.04 35.55 12.25 40.63 C16.55 46.45 16.39 52.95 15.48 59.91 C13.95 65.65 11.65 70.6 7.48 74.91 C4.35 76.48 1.95 76.26 -1.52 75.91 C-4.45 73.68 -6.07 71.86 -7.64 68.54 C-7.47 64.99 -5.88 63.41 -3.73 60.68 C-2 58.16 -1.65 55.93 -1.52 52.91 C-1.85 51.92 -2.18 50.93 -2.52 49.91 C-3.43 49.81 -4.35 49.71 -5.3 49.61 C-16.85 48.21 -23.29 46.22 -30.88 37.24 C-33.06 34.13 -33.88 31.63 -34.52 27.91 C-34.85 27.91 -35.18 27.91 -35.52 27.91 C-36.41 20.13 -33.8 14.37 -29.52 7.91 C-27.08 5.39 -24.56 3.62 -21.52 1.91 C-20.44 1.29 -19.37 0.67 -18.27 0.04 C-12.26 -1.77 -5.89 -2.55 0 0 Z M-34.52 19.91 C-33.52 22.91 -33.52 22.91 -33.52 22.91 Z " fill="#FBACD5" transform="translate(796.515625,959.08984375)"/>
<path d="M0 0 C9.75 7.16 16.88 15.89 19.39 27.91 C20.58 36.58 19.8 45.09 14.98 52.59 C11.57 54.62 8.55 54.74 4.67 53.96 C1.66 51.95 0.87 50.59 -0.2 47.15 C-0.33 43.96 -0.33 43.96 0.67 40.71 C2.31 34.58 1.32 29.25 -0.39 23.21 C-3.41 18.15 -7.55 15.06 -13.02 12.9 C-16.12 12.98 -17.79 14.25 -20.33 15.96 C-20.99 15.96 -21.65 15.96 -22.33 15.96 C-22.62 16.87 -22.91 17.78 -23.2 18.71 C-24.33 21.96 -24.33 21.96 -25.34 23.82 C-26.52 26.38 -26.83 28.68 -27.2 31.46 C-27.78 34.79 -28.21 36.77 -30.02 39.65 C-33.48 41.61 -35.42 41.7 -39.33 40.96 C-41.97 38.99 -43.9 36.93 -45.33 33.96 C-46.17 24.23 -42.37 14.04 -36.52 6.34 C-26.75 -4.76 -13 -8 0 0 Z M-44.33 26.96 C-44.33 28.61 -44.33 30.26 -44.33 31.96 C-44 31.96 -43.67 31.96 -43.33 31.96 C-43.33 30.31 -43.33 28.66 -43.33 26.96 C-43.66 26.96 -43.99 26.96 -44.33 26.96 Z M2.67 36.96 C3.67 38.96 3.67 38.96 3.67 38.96 Z " fill="#FBACD5" transform="translate(1019.328125,754.0390625)"/>
<path d="M0 0 C3.31 2.06 3.31 2.06 6 5 C6.64 9.14 5.9 12.46 4.88 16.44 C3.77 21.09 4.15 24.6 6 29 C7.28 31.03 8.6 33.04 10 35 C10 35.66 10 36.32 10 37 C15.31 39.4 20.24 39.88 26 39 C28.69 36.91 28.69 36.91 30 34 C30.34 33.41 30.69 32.81 31.04 32.2 C32.23 29.48 32.47 27 32.81 24.06 C33.45 20 33.85 18.21 36.31 14.81 C40.71 11.84 40.71 11.84 44 12 C47.03 13.1 49.03 14.43 51 17 C53.22 25.7 49.81 36.78 45.68 44.46 C41.23 50.81 34.98 56.35 27.19 57.81 C16.56 58.72 8.24 55.5 -0.12 49.06 C-7.86 41.91 -12.5 32.04 -13.24 21.67 C-13.39 14.59 -13.45 7.88 -9 2 C-5.87 0.1 -3.66 -0.61 0 0 Z M35 18 C36 21 36 21 36 21 Z M34 23 C35 26 35 26 35 26 Z M19 41 C19 41.33 19 41.66 19 42 C20.98 42 22.96 42 25 42 C25 41.67 25 41.34 25 41 C23.02 41 21.04 41 19 41 Z " fill="#FBACD5" transform="translate(244,450)"/>
<path d="M0 0 C3.21 0.32 4.02 1.31 6.07 3.74 C9.28 7.7 11.07 11.37 12.44 16.24 C12.85 17.44 13.27 18.63 13.69 19.87 C16.14 30.55 13.32 41.68 8.44 51.24 C5.06 56.04 5.06 56.04 1.44 57.24 C0.78 58.23 0.12 59.22 -0.56 60.24 C-14.64 56.03 -14.64 56.03 -17.81 51.43 C-23.34 39.71 -24.41 21.66 -20.48 9.48 C-18.67 5.06 -15.79 3.1 -11.56 1.24 C-9.38 0.83 -9.38 0.83 -7.12 0.62 C-6.01 0.51 -6.01 0.51 -4.88 0.39 C-3.25 0.29 -1.62 0.15 0 0 Z " fill="#000000" transform="translate(568.55859375,532.7578125)"/>
<path d="M0 0 C6.38 2.31 9.12 9.71 12.19 15.38 C12.67 16.25 13.15 17.13 13.64 18.03 C15.96 22.28 18.2 26.54 20.29 30.9 C20.65 31.64 21 32.37 21.37 33.13 C22.03 34.51 22.67 35.9 23.3 37.3 C24.94 40.82 24.94 40.82 27.91 43.15 C30.59 43.03 31.75 42.11 33.88 40.5 C37.6 38 37.6 38 40.75 38.56 C45.71 41.97 45.71 41.97 46.37 45.18 C46.37 46.33 46.37 46.33 46.38 47.5 C46.39 48.26 46.41 49.02 46.43 49.81 C45.28 55.07 39.32 58.18 35.11 61.05 C15.31 73.63 15.31 73.63 6.12 72.84 C2.1 71.41 0.85 68.76 -1.06 65.06 C0.94 59.33 3.91 57.56 9.07 54.95 C9.69 54.65 10.3 54.36 10.94 54.06 C10.42 48.39 8.19 44.27 5.5 39.38 C5.06 38.55 4.62 37.73 4.17 36.89 C1.83 32.5 -0.58 28.14 -3.02 23.8 C-3.49 22.96 -3.96 22.11 -4.44 21.24 C-5.34 19.61 -6.25 17.99 -7.19 16.38 C-10.21 10.89 -10.21 10.89 -9.47 6.67 C-7.16 2.39 -5 0.1 0 0 Z " fill="#FBACD5" transform="translate(834.0625,935.9375)"/>
<path d="M0 0 C2.93 1.61 5.19 2.93 7.5 5.38 C8.12 8.88 8.12 8.88 7.5 12.38 C5.31 14.62 5.31 14.62 2.5 16.38 C1.61 16.95 0.73 17.53 -0.19 18.12 C-2.5 19.38 -2.5 19.38 -4.5 19.38 C0.06 29.04 5.36 38.26 10.7 47.52 C11.41 48.77 11.41 48.77 12.14 50.04 C12.99 51.5 13.85 52.95 14.74 54.38 C16.87 57.88 18.05 60.5 18 64.62 C18.01 65.46 18.02 66.29 18.03 67.14 C17.5 69.38 17.5 69.38 15.68 71.14 C12.38 73.01 10.23 72.96 6.5 72.38 C2.09 68.5 0.03 63.58 -2.48 58.36 C-5.2 52.87 -8.24 47.57 -11.25 42.25 C-11.83 41.22 -12.41 40.19 -13.01 39.12 C-13.56 38.15 -14.11 37.18 -14.67 36.18 C-15.17 35.3 -15.66 34.43 -16.17 33.52 C-17.45 31.27 -17.45 31.27 -19.5 29.38 C-20.53 30.18 -21.56 30.98 -22.62 31.81 C-25.91 34.13 -28.36 35.46 -32.5 35.38 C-35.88 33.3 -38.33 31.23 -39.5 27.38 C-39.41 24.02 -38.69 22.61 -36.56 20 C-30.16 14.17 -22.69 9.8 -15.19 5.56 C-14.51 5.18 -13.82 4.79 -13.12 4.4 C-3.59 -0.9 -3.59 -0.9 0 0 Z " fill="#FBACD5" transform="translate(422.5,244.625)"/>
<path d="M0 0 C2.71 2.61 4.27 5.69 6 9 C6.64 10.13 7.27 11.27 7.93 12.43 C12.62 21.03 14.17 26.46 11.88 36.19 C6.91 53.06 6.91 53.06 1 57 C-1.74 57.3 -1.74 57.3 -4.88 57.31 C-5.9 57.33 -6.93 57.35 -7.99 57.36 C-11.46 56.94 -13.24 56.13 -16 54 C-20.46 47.87 -21.83 41.43 -22 34 C-22.08 32.76 -22.08 32.76 -22.15 31.49 C-22.37 25.68 -21.67 20.2 -20.62 14.5 C-20.5 13.81 -20.37 13.11 -20.24 12.39 C-19.58 9.03 -18.93 6.89 -17 4 C-11.64 0.68 -6.21 -1.32 0 0 Z " fill="#000000" transform="translate(719,534)"/>
<path d="M0 0 C0.27 0.56 0.54 1.12 0.82 1.69 C5.79 11.43 11.13 18.89 21 24 C23.31 24.73 25.65 25.41 28 26 C29.34 26.65 30.68 27.32 32 28 C33.99 28.69 35.99 29.36 38 30 C38 30.33 38 30.66 38 31 C37.05 31.19 36.1 31.37 35.12 31.56 C25.43 34.41 18.83 41.43 14 50 C10.66 56.55 9.31 62.67 9 70 C7.35 67.53 6.39 65.59 5.31 62.88 C0.41 51.82 -7.07 45.73 -18.12 41.19 C-22.04 39.83 -25.88 39.37 -30 39 C-28.24 35.92 -26.46 34.61 -23.31 33.19 C-13.26 28.42 -8.22 20.84 -4.25 10.75 C-3.27 7.81 -2.48 5.06 -2 2 C-1.34 2 -0.68 2 0 2 C0 1.34 0 0.68 0 0 Z " fill="#FAACD5" transform="translate(684,990)"/>
<path d="M0 0 C1.75 2.63 3.16 5.18 4.56 8 C5 8.87 5.43 9.73 5.88 10.62 C7 13 7 13 8 16 C9.31 16.72 10.65 17.37 12 18 C13.57 19.15 15.14 20.32 16.69 21.5 C21.45 24.87 25.32 26.14 31 27 C32.52 27.36 34.05 27.73 35.56 28.12 C36.7 28.41 37.83 28.7 39 29 C37.53 31.93 35.41 32.26 32.44 33.56 C22.87 38.26 16.51 45.92 13 56 C12.09 60.31 11.46 64.62 11 69 C8.23 67.62 7.97 65.66 6.86 62.91 C5.57 60.05 3.76 57.58 2 55 C1.67 54.01 1.34 53.02 1 52 C-0.81 50.93 -0.81 50.93 -3 50 C-4.57 49.03 -6.13 48.05 -7.69 47.06 C-14.5 42.96 -21.12 40.84 -29 40 C-26.93 38.41 -24.84 36.9 -22.67 35.46 C-12.18 28.5 -5.16 20.47 -2.54 7.78 C-2.34 6.19 -2.17 4.59 -2 3 C-1.34 2.01 -0.68 1.02 0 0 Z " fill="#FAACD5" transform="translate(571,192)"/>
<path d="M0 0 C3.56 1.71 5.08 2.98 7 6.44 C7.21 10.46 6.75 12.43 4.33 15.68 C1.96 18.29 -0.5 20.79 -3 23.27 C-3.92 24.19 -4.83 25.11 -5.77 26.06 C-7.7 28 -9.63 29.93 -11.58 31.85 C-14.07 34.31 -16.52 36.8 -18.97 39.29 C-21.32 41.68 -23.69 44.04 -26.07 46.4 C-27.38 47.74 -27.38 47.74 -28.72 49.1 C-35.63 55.86 -35.63 55.86 -40.44 56.57 C-44.39 56.42 -46.08 56.1 -49 53.44 C-50.54 50.35 -51.15 48.42 -50.62 45 C-49.04 42.49 -47.65 41.17 -45.4 39.28 C-41.03 35.51 -36.97 31.5 -32.92 27.39 C-31.42 25.87 -29.91 24.35 -28.41 22.83 C-26.07 20.47 -23.73 18.1 -21.39 15.73 C-19.11 13.42 -16.83 11.12 -14.55 8.82 C-13.85 8.11 -13.15 7.4 -12.43 6.67 C-11.78 6.01 -11.12 5.35 -10.45 4.67 C-9.88 4.1 -9.31 3.52 -8.72 2.92 C-5.7 0.31 -4 -0.75 0 0 Z " fill="#FBACD5" transform="translate(399,900.5625)"/>
<path d="M0 0 C3.93 1.9 6.47 3.24 8.94 6.94 C9.38 9.29 9.38 9.29 8.94 11.94 C6.81 14.59 6.81 14.59 3.94 17.31 C3.44 17.79 2.94 18.27 2.42 18.76 C-2.42 23.37 -7.36 27.88 -12.69 31.94 C-14.71 33.64 -16.2 35.23 -17.88 37.25 C-20.66 40.59 -23.72 43.35 -27.04 46.16 C-29.7 48.5 -32.16 51.01 -34.62 53.55 C-36.73 55.57 -37.94 55.92 -40.88 56.25 C-44.95 55.85 -46.37 55.01 -49.06 51.94 C-50.73 47.29 -50.73 47.29 -50.06 43.94 C-47.24 39.93 -43.71 36.69 -40.12 33.38 C-39.19 32.47 -38.25 31.56 -37.28 30.63 C-32.59 26.13 -27.79 21.77 -22.87 17.52 C-19.43 14.51 -16.13 11.36 -12.82 8.21 C-3.92 -0.12 -3.92 -0.12 0 0 Z " fill="#FBACD5" transform="translate(925.0625,298.0625)"/>
<path d="M0 0 C0.66 0.33 1.32 0.66 2 1 C3.36 1.14 4.73 1.23 6.1 1.28 C7.3 1.34 7.3 1.34 8.53 1.39 C10.22 1.47 11.92 1.54 13.61 1.61 C19.9 1.9 19.9 1.9 21 3 C21.99 3 22.98 3 24 3 C24.99 3 25.98 3 27 3 C27.49 3.5 27.49 3.5 28 4 C28.83 4 29.65 4 30.5 4 C31.33 4 32.15 4 33 4 C33.49 4.5 33.49 4.5 34 5 C36.23 5.21 38.46 5.37 40.69 5.5 C49.61 6.03 54.55 6.55 61 13 C61.34 15.06 61.34 15.06 61.38 17.44 C61.4 18.22 61.43 19 61.46 19.81 C61 22 61 22 59.39 23.68 C56.03 25.53 54.04 24.97 50.27 24.37 C48.83 24.15 47.38 23.94 45.94 23.73 C45.16 23.61 44.37 23.49 43.55 23.37 C39.83 22.83 36.1 22.41 32.36 21.98 C28.22 21.51 24.07 21.01 19.93 20.51 C17.79 20.25 15.65 20 13.5 19.76 C10.37 19.4 7.24 19.02 4.11 18.63 C3.15 18.53 2.19 18.42 1.21 18.32 C-5.38 17.48 -5.38 17.48 -8.51 15.09 C-12 10.2 -12 10.2 -11.94 6.5 C-11 3 -11 3 -8.81 1.06 C-5.64 -0.13 -3.36 -0.3 0 0 Z M-11 5 C-10 7 -10 7 -10 7 Z " fill="#FBACD5" transform="translate(1012,631)"/>
<path d="M0 0 C0.69 0.01 1.37 0.02 2.08 0.03 C7.1 0.14 7.1 0.14 9.44 1.31 C10.45 1.31 11.46 1.31 12.5 1.31 C13.47 1.31 14.44 1.31 15.44 1.31 C15.77 1.64 16.1 1.97 16.44 2.31 C17.99 2.46 19.54 2.54 21.09 2.59 C22.03 2.63 22.97 2.67 23.94 2.71 C24.93 2.74 25.92 2.78 26.94 2.81 C28.89 2.88 30.83 2.95 32.78 3.03 C33.65 3.06 34.52 3.09 35.41 3.12 C37.44 3.31 37.44 3.31 38.44 4.31 C39.94 4.36 41.44 4.35 42.94 4.31 C44.44 4.27 45.94 4.27 47.44 4.31 C47.93 4.81 47.93 4.81 48.44 5.31 C49.32 5.25 50.21 5.19 51.12 5.12 C56.07 5.4 59.01 7.89 62.44 11.31 C63.01 18.49 63.01 18.49 61.33 20.92 C54.12 26.24 36.05 21.53 27.5 20.44 C26.07 20.26 24.63 20.09 23.2 19.91 C20.36 19.56 17.52 19.2 14.69 18.84 C11.78 18.47 8.87 18.15 5.95 17.87 C4.86 17.76 4.86 17.76 3.75 17.65 C1.74 17.44 -0.26 17.25 -2.27 17.07 C-5.96 16.22 -7.27 15.27 -9.56 12.31 C-10.28 10.31 -10.28 10.31 -10.5 8.31 C-10.64 7.32 -10.64 7.32 -10.78 6.31 C-10.08 -0.21 -5.52 -0.23 0 0 Z " fill="#FBACD5" transform="translate(210.5625,603.6875)"/>
<path d="M0 0 C3.94 1.31 4.29 2.83 6.19 6.44 C6.72 7.43 7.25 8.41 7.79 9.43 C9 12 9 12 9 14 C8.34 14 7.68 14 7 14 C4.69 9.38 2.38 4.76 0 0 Z " fill="#FAADD5" transform="translate(847,521)"/>
<path d="M0 0 C0.33 0 0.66 0 1 0 C1 6.27 1 12.54 1 19 C0.67 19 0.34 19 0 19 C0 12.73 0 6.46 0 0 Z " fill="#F6DDF0" transform="translate(338,628)"/>
<path d="M0 0 C0.33 0 0.66 0 1 0 C1 2.97 1 5.94 1 9 C0.67 9 0.34 9 0 9 C0 6.03 0 3.06 0 0 Z " fill="#FBACD5" transform="translate(230,464)"/>
<path d="M0 0 C2.97 0 5.94 0 9 0 C9 0.33 9 0.66 9 1 C6.03 1 3.06 1 0 1 C0 0.67 0 0.34 0 0 Z " fill="#FBACD5" transform="translate(1014,434)"/>
<path d="M0 0 C2.64 0 5.28 0 8 0 C8 0.33 8 0.66 8 1 C5.36 1 2.72 1 0 1 C0 0.67 0 0.34 0 0 Z " fill="#FBACD5" transform="translate(470,959)"/>
<path d="M0 0 C0.33 0.66 0.66 1.32 1 2 C0.01 2.99 -0.98 3.98 -2 5 C-1.34 3.35 -0.68 1.7 0 0 Z " fill="#F6DDF0" transform="translate(389,457)"/>
<path d="M0 0 C0.66 0.33 1.32 0.66 2 1 C0.68 1.99 -0.64 2.98 -2 4 C-1.34 2.68 -0.68 1.36 0 0 Z " fill="#F6DDF0" transform="translate(416,423)"/>
<path d="M0 0 C0.33 0 0.66 0 1 0 C1 2.31 1 4.62 1 7 C0.67 7 0.34 7 0 7 C0 4.69 0 2.38 0 0 Z " fill="#FBACD5" transform="translate(303,343)"/>
<path d="M0 0 C1.98 0 3.96 0 6 0 C6 0.33 6 0.66 6 1 C4.02 1 2.04 1 0 1 C0 0.67 0 0.34 0 0 Z " fill="#FBACD5" transform="translate(205,603)"/>
<path d="M0 0 C1.98 0 3.96 0 6 0 C6 0.33 6 0.66 6 1 C4.02 1 2.04 1 0 1 C0 0.67 0 0.34 0 0 Z " fill="#F6DDF0" transform="translate(675,329)"/>
<path d="M0 0 C1.65 0 3.3 0 5 0 C5 0.33 5 0.66 5 1 C3.35 1 1.7 1 0 1 C0 0.67 0 0.34 0 0 Z " fill="#FBACD5" transform="translate(242,696)"/>
<path d="M0 0 C0.33 0 0.66 0 1 0 C1 1.65 1 3.3 1 5 C0.67 5 0.34 5 0 5 C0 3.35 0 1.7 0 0 Z " fill="#F6DDF0" transform="translate(342,573)"/>
<path d="M0 0 C0 0.99 0 1.98 0 3 C-0.66 2.67 -1.32 2.34 -2 2 C-1.34 1.34 -0.68 0.68 0 0 Z " fill="#F6DDF0" transform="translate(385,464)"/>
<path d="M0 0 C0.66 0.33 1.32 0.66 2 1 C1.01 1.66 0.02 2.32 -1 3 C-0.67 2.01 -0.34 1.02 0 0 Z " fill="#F6DDF0" transform="translate(420,419)"/>
<path d="M0 0 C0.66 0.33 1.32 0.66 2 1 C1.01 1.66 0.02 2.32 -1 3 C-0.67 2.01 -0.34 1.02 0 0 Z " fill="#F6DDF0" transform="translate(425,414)"/>
<path d="M0 0 C0.66 0.33 1.32 0.66 2 1 C1.01 1.66 0.02 2.32 -1 3 C-0.67 2.01 -0.34 1.02 0 0 Z " fill="#F6DDF0" transform="translate(429,410)"/>
<path d="M0 0 C4 1 4 1 4 1 Z " fill="#FBACD5" transform="translate(537,981)"/>
<path d="M0 0 C4 1 4 1 4 1 Z " fill="#FBACD5" transform="translate(786,957)"/>
<path d="M0 0 C0 3 0 3 0 3 Z " fill="#F6DDF0" transform="translate(358,516)"/>
<path d="M0 0 C0 3 0 3 0 3 Z " fill="#F6DDF0" transform="translate(363,504)"/>
<path d="M0 0 C0 3 0 3 0 3 Z " fill="#F6DDF0" transform="translate(368,494)"/>
<path d="M0 0 C0 3 0 3 0 3 Z " fill="#F6DDF0" transform="translate(376,478)"/>
<path d="M0 0 C4 1 4 1 4 1 Z " fill="#FBACD5" transform="translate(325,411)"/>
<path d="M0 0 C0.99 0.33 1.98 0.66 3 1 C2.01 1.33 1.02 1.66 0 2 C0 1.34 0 0.68 0 0 Z " fill="#F6DDF0" transform="translate(465,379)"/>
<path d="M0 0 C4 1 4 1 4 1 Z " fill="#F6DDF0" transform="translate(671,328)"/>
<path d="" fill="#FBACD5" transform="translate(0,0)"/>
<path d="" fill="#F6DDF0" transform="translate(0,0)"/>
<path d="" fill="#FBACD5" transform="translate(0,0)"/>
<path d="" fill="#FBACD5" transform="translate(0,0)"/>
<path d="" fill="#F6DDF0" transform="translate(0,0)"/>
<path d="M0 0 C0.99 0.5 0.99 0.5 2 1 C1.01 1.5 1.01 1.5 0 2 C0 1.34 0 0.68 0 0 Z " fill="#F6DDF0" transform="translate(463,381)"/>
<path d="" fill="#F6DDF0" transform="translate(0,0)"/>
<path d="" fill="#FBACD5" transform="translate(0,0)"/>
<path d="" fill="#FBACD5" transform="translate(0,0)"/>
<path d="" fill="#FBACD5" transform="translate(0,0)"/>
<path d="" fill="#F6DDF0" transform="translate(0,0)"/>
<path d="" fill="#F6DDF0" transform="translate(0,0)"/>
<path d="" fill="#F6DDF0" transform="translate(0,0)"/>
<path d="" fill="#F6DDF0" transform="translate(0,0)"/>
<path d="" fill="#F6DDF0" transform="translate(0,0)"/>
<path d="M0 0 C2 1 2 1 2 1 Z " fill="#F6DDF0" transform="translate(460,384)"/>
<path d="M0 0 C2 1 2 1 2 1 Z " fill="#F6DDF0" transform="translate(511,354)"/>
<path d="" fill="#F6DDF0" transform="translate(0,0)"/>
<path d="M0 0 C2 1 2 1 2 1 Z " fill="#F6DDF0" transform="translate(541,342)"/>
<path d="" fill="#FBACD5" transform="translate(0,0)"/>
<path d="M0 0 C2 1 2 1 2 1 Z " fill="#FBACD5" transform="translate(365,281)"/>
<path d="" fill="#FBACD5" transform="translate(0,0)"/>
<path d="" fill="#FBACD5" transform="translate(0,0)"/>
<path d="" fill="#FBACD5" transform="translate(0,0)"/>
<path d="" fill="#F6DDF0" transform="translate(0,0)"/>
<path d="" fill="#F6DDF0" transform="translate(0,0)"/>
<path d="" fill="#F6DDF0" transform="translate(0,0)"/>
<path d="" fill="#FBACD5" transform="translate(0,0)"/>
<path d="" fill="#F6DDF0" transform="translate(0,0)"/>
<path d="" fill="#F6DDF0" transform="translate(0,0)"/>
<path d="" fill="#F6DDF0" transform="translate(0,0)"/>
<path d="" fill="#F6DDF0" transform="translate(0,0)"/>
<path d="" fill="#F6DDF0" transform="translate(0,0)"/>
<path d="" fill="#F6DDF0" transform="translate(0,0)"/>
<path d="" fill="#F6DDF0" transform="translate(0,0)"/>
<path d="" fill="#F6DDF0" transform="translate(0,0)"/>
<path d="" fill="#F6DDF0" transform="translate(0,0)"/>
<path d="" fill="#F6DDF0" transform="translate(0,0)"/>
<path d="" fill="#F6DDF0" transform="translate(0,0)"/>
<path d="" fill="#F6DDF0" transform="translate(0,0)"/>
<path d="" fill="#F6DDF0" transform="translate(0,0)"/>
<path d="" fill="#F6DDF0" transform="translate(0,0)"/>
<path d="" fill="#F6DDF0" transform="translate(0,0)"/>
<path d="" fill="#FBACD5" transform="translate(0,0)"/>
<path d="" fill="#F6DDF0" transform="translate(0,0)"/>
<path d="" fill="#F6DDF0" transform="translate(0,0)"/>
<path d="" fill="#F6DDF0" transform="translate(0,0)"/>
<path d="" fill="#F6DDF0" transform="translate(0,0)"/>
<path d="" fill="#F6DDF0" transform="translate(0,0)"/>
<path d="" fill="#F6DDF0" transform="translate(0,0)"/>
<path d="" fill="#F6DDF0" transform="translate(0,0)"/>
<path d="" fill="#F6DDF0" transform="translate(0,0)"/>
<path d="" fill="#F6DDF0" transform="translate(0,0)"/>
<path d="" fill="#FBACD5" transform="translate(0,0)"/>
<path d="" fill="#F6DDF0" transform="translate(0,0)"/>
<path d="" fill="#F6DDF0" transform="translate(0,0)"/>
<path d="" fill="#F6DDF0" transform="translate(0,0)"/>
<path d="" fill="#F6DDF0" transform="translate(0,0)"/>
<path d="" fill="#F6DDF0" transform="translate(0,0)"/>
<path d="" fill="#F6DDF0" transform="translate(0,0)"/>
<path d="" fill="#F6DDF0" transform="translate(0,0)"/>
<path d="" fill="#F6DDF0" transform="translate(0,0)"/>
<path d="" fill="#F6DDF0" transform="translate(0,0)"/>
<path d="" fill="#F6DDF0" transform="translate(0,0)"/>
<path d="" fill="#F6DDF0" transform="translate(0,0)"/>
<path d="" fill="#F6DDF0" transform="translate(0,0)"/>
<path d="" fill="#FBACD5" transform="translate(0,0)"/>
<path d="" fill="#F6DDF0" transform="translate(0,0)"/>
<path d="" fill="#F6DDF0" transform="translate(0,0)"/>
<path d="" fill="#F6DDF0" transform="translate(0,0)"/>
<path d="" fill="#F6DDF0" transform="translate(0,0)"/>
<path d="" fill="#F6DDF0" transform="translate(0,0)"/>
<path d="" fill="#F6DDF0" transform="translate(0,0)"/>
<path d="" fill="#F6DDF0" transform="translate(0,0)"/>
<path d="" fill="#F6DDF0" transform="translate(0,0)"/>
</svg>
